<svg width="512" height="512" viewBox="0 0 512 512" fill="none" xmlns="http://www.w3.org/2000/svg">
  <rect width="512" height="512" rx="96" fill="#111317"/>
  <path d="M109 205C109 130 173 94 256 94C339 94 403 132 403 207C403 284 343 356 256 356C168 356 109 282 109 205Z" stroke="url(#paint0_linear_2)" stroke-width="32"/>
  <path d="M165 168C182 141 214 123 256 123C295 123 327 139 348 164" stroke="#7CDA4E" stroke-width="28" stroke-linecap="round"/>
  <path d="M346 163C370 182 385 211 390 242" stroke="#FFC23A" stroke-width="28" stroke-linecap="round"/>
  <path d="M329 305C309 329 283 344 256 344C217 344 186 328 162 300" stroke="#5F73CC" stroke-width="28" stroke-linecap="round"/>
  <path d="M124 285C137 308 157 327 181 341" stroke="#C8A0D8" stroke-width="28" stroke-linecap="round"/>
  <path d="M378 284C365 307 345 326 321 340" stroke="#FFAF3E" stroke-width="28" stroke-linecap="round"/>
  <path d="M256 147L298 274H265L231 344L194 273H214L256 147Z" fill="url(#paint1_linear_2)"/>
  <defs>
    <linearGradient id="paint0_linear_2" x1="109" y1="94" x2="403" y2="356" gradientUnits="userSpaceOnUse">
      <stop stop-color="#7EE151"/>
      <stop offset="0.5" stop-color="#F8D84A"/>
      <stop offset="1" stop-color="#FF9A1F"/>
    </linearGradient>
    <linearGradient id="paint1_linear_2" x1="194" y1="147" x2="298" y2="344" gradientUnits="userSpaceOnUse">
      <stop stop-color="#D8F36C"/>
      <stop offset="0.48" stop-color="#4D6AC8"/>
      <stop offset="1" stop-color="#FF9A1F"/>
    </linearGradient>
  </defs>
</svg>
