<?xml version="1.0" standalone="no"?>
<!DOCTYPE svg PUBLIC "-//W3C//DTD SVG 20010904//EN"
 "http://www.w3.org/TR/2001/REC-SVG-20010904/DTD/svg10.dtd">
<svg version="1.0" xmlns="http://www.w3.org/2000/svg"
 width="299.000000pt" height="595.000000pt" viewBox="0 0 299.000000 595.000000"
 preserveAspectRatio="xMidYMid meet">

<g transform="translate(0.000000,595.000000) scale(0.100000,-0.100000)"
fill="#000000" stroke="none">
<path d="M0 2975 l0 -2975 1495 0 1495 0 0 2975 0 2975 -1495 0 -1495 0 0
-2975z m1688 1502 c194 -67 343 -216 413 -413 29 -82 37 -264 15 -356 -76
-322 -397 -545 -718 -498 -221 32 -404 162 -497 352 -60 121 -74 190 -69 323
5 124 31 215 90 312 74 124 220 239 358 282 93 29 103 30 225 26 86 -2 126 -9
183 -28z m-614 -3293 c9 -8 16 -20 16 -25 0 -15 -27 -10 -34 6 -7 18 -37 20
-54 3 -16 -16 -16 -70 0 -86 17 -17 47 -15 54 3 6 15 34 21 34 8 -1 -30 -51
-56 -84 -43 -45 17 -61 84 -30 128 18 26 74 30 98 6z m696 -59 c0 -60 -3 -75
-15 -75 -12 0 -15 13 -15 60 0 49 -3 58 -15 54 -21 -8 -19 13 3 25 37 22 42
14 42 -64z m-589 25 c11 -6 19 -21 19 -35 0 -22 -4 -25 -35 -25 -19 0 -35 -5
-35 -11 0 -7 12 -9 35 -5 42 8 48 -10 9 -25 -57 -21 -99 47 -57 93 18 20 36
23 64 8z m127 -2 c17 -15 15 -74 -4 -92 -10 -10 -24 -14 -40 -10 -21 5 -24 3
-24 -20 0 -14 -4 -26 -10 -26 -6 0 -10 33 -10 78 l0 78 38 1 c20 1 43 -3 50
-9z m99 4 c6 -4 13 -27 15 -52 l3 -45 -42 -3 -43 -3 0 55 c0 54 1 56 28 56 15
0 32 -4 39 -8z m114 -2 c11 -6 19 -21 19 -35 0 -22 -4 -25 -35 -25 -19 0 -35
-5 -35 -11 0 -7 12 -9 35 -5 42 8 48 -10 9 -25 -57 -21 -99 47 -57 93 18 20
36 23 64 8z m127 -2 c18 -15 15 -72 -6 -91 -11 -10 -26 -14 -40 -10 -19 4 -22
1 -22 -21 0 -14 -4 -26 -10 -26 -6 0 -10 33 -10 78 l0 78 38 1 c20 1 43 -3 50
-9z m299 -35 c-16 -16 -18 -16 -34 2 -14 14 -14 16 -2 7 13 -10 19 -9 29 3 7
9 15 13 18 10 3 -3 -2 -13 -11 -22z m-416 -866 c11 -4 16 -18 16 -47 0 -34 -4
-43 -22 -50 -13 -5 -26 -14 -30 -20 -5 -8 -12 -7 -23 3 -10 8 -24 17 -33 20
-11 4 -16 18 -16 47 0 34 4 43 22 50 13 5 26 14 30 20 5 8 12 7 23 -3 10 -8
24 -17 33 -20z m-584 -3 c27 -21 33 -32 33 -63 0 -51 -17 -63 -82 -59 l-53 3
-3 49 c-3 44 0 52 25 72 35 29 39 29 80 -2z m1133 -34 c10 0 22 -4 25 -10 3
-6 -5 -10 -19 -10 -18 0 -26 -6 -29 -22 l-4 -23 -2 23 c-1 17 -7 22 -27 22
-14 0 -23 4 -19 10 3 6 15 10 26 10 13 0 19 7 20 23 l2 22 4 -22 c3 -14 12
-23 23 -23z"/>
<path d="M1378 4480 c-133 -24 -231 -74 -332 -171 -121 -115 -183 -248 -193
-414 -16 -285 156 -540 430 -637 51 -19 84 -22 192 -23 111 0 141 3 204 24
150 49 286 166 359 310 56 110 67 158 66 296 0 103 -4 130 -26 193 -70 196
-222 344 -412 401 -79 24 -217 34 -288 21z m-268 -625 c0 -25 -4 -45 -10 -45
-5 0 -10 18 -10 40 0 33 -3 40 -20 40 -17 0 -20 -7 -20 -40 0 -22 -4 -40 -10
-40 -5 0 -10 20 -10 45 l0 45 40 0 40 0 0 -45z m70 10 c17 -21 3 -57 -22 -53
-30 4 -45 32 -29 52 17 20 35 20 51 1z m83 -27 c6 -41 -1 -66 -10 -40 -6 15
-43 16 -43 0 0 -9 -3 -9 -12 0 -9 9 -9 15 0 24 7 7 12 22 12 35 0 18 6 23 24
23 20 0 24 -6 29 -42z m51 31 c13 11 15 9 13 -16 -3 -38 27 -39 31 0 3 21 9
27 28 27 21 0 24 -5 24 -35 0 -19 -4 -35 -10 -35 -5 0 -10 11 -10 25 0 14 -4
25 -10 25 -5 0 -10 -9 -10 -20 0 -26 -27 -37 -53 -21 -16 10 -21 10 -28 -1 -6
-8 -9 1 -9 27 0 28 3 36 9 26 8 -12 12 -12 25 -2z m147 -4 c26 24 51 12 47
-22 -4 -33 -36 -44 -51 -17 -10 17 -11 17 -18 -1 -5 -14 -7 -9 -7 20 0 22 2
32 5 22 4 -17 6 -18 24 -2z m94 -25 c3 0 10 10 15 23 7 18 9 16 9 -18 -1 -22
-3 -34 -6 -27 -2 6 -13 12 -23 12 -20 0 -34 26 -23 43 4 6 10 2 14 -11 5 -12
11 -22 14 -22z m81 23 c11 30 24 18 23 -20 -1 -33 -2 -35 -8 -13 l-7 25 -12
-22 c-19 -34 -32 -28 -32 15 1 34 2 36 15 18 13 -17 15 -17 21 -3z m94 7 c0
-5 -4 -10 -10 -10 -5 0 -10 -11 -10 -25 0 -14 -4 -25 -10 -25 -5 0 -10 10 -10
23 0 13 -5 28 -12 35 -9 9 -5 12 20 12 18 0 32 -4 32 -10z m47 -14 c29 -27 24
-46 -13 -46 -21 0 -24 5 -24 35 0 41 3 42 37 11z m78 14 c3 -5 -3 -10 -15 -10
-15 0 -20 -5 -18 -17 2 -10 11 -17 21 -17 9 1 17 -3 17 -8 0 -17 -45 -3 -48
15 -7 38 25 65 43 37z m75 -27 c0 -27 -3 -34 -9 -24 -8 12 -13 12 -24 3 -12
-10 -15 -8 -15 15 0 36 5 43 29 43 15 0 19 -7 19 -37z"/>
<path d="M1142 3843 c5 -25 28 -28 28 -4 0 12 -6 21 -16 21 -9 0 -14 -7 -12
-17z"/>
<path d="M1220 3840 c0 -11 5 -20 10 -20 6 0 10 9 10 20 0 11 -4 20 -10 20 -5
0 -10 -9 -10 -20z"/>
<path d="M1470 3839 c0 -24 23 -21 28 4 2 10 -3 17 -12 17 -10 0 -16 -9 -16
-21z"/>
<path d="M1760 3830 c0 -5 5 -10 10 -10 6 0 10 5 10 10 0 6 -4 10 -10 10 -5 0
-10 -4 -10 -10z"/>
<path d="M1895 3850 c4 -6 11 -8 16 -5 14 9 11 15 -7 15 -8 0 -12 -5 -9 -10z"/>
<path d="M1137 1133 c-13 -12 -7 -23 13 -23 11 0 20 7 20 15 0 15 -21 21 -33
8z"/>
<path d="M1250 1121 c-13 -25 -3 -51 20 -51 23 0 36 36 20 55 -17 20 -27 19
-40 -4z"/>
<path d="M1365 1129 c-10 -15 1 -23 20 -15 9 3 13 10 10 16 -8 13 -22 13 -30
-1z"/>
<path d="M1360 1080 c0 -5 9 -10 20 -10 11 0 20 5 20 10 0 6 -9 10 -20 10 -11
0 -20 -4 -20 -10z"/>
<path d="M1477 1134 c-13 -13 -7 -24 14 -24 11 0 19 5 17 12 -5 14 -22 21 -31
12z"/>
<path d="M1590 1125 c-16 -19 -3 -55 20 -55 23 0 33 26 20 51 -13 23 -23 24
-40 4z"/>
<path d="M1470 245 c-7 -8 -18 -15 -24 -15 -6 0 -11 -16 -12 -35 0 -18 4 -32
8 -29 5 3 17 -1 27 -10 16 -14 20 -15 30 -2 7 8 18 13 25 10 9 -3 12 6 12 31
-1 19 -5 35 -10 35 -5 0 -17 7 -26 15 -15 14 -18 14 -30 0z m40 -45 c0 -23
-13 -32 -34 -24 -19 7 -21 40 -3 47 20 7 37 -4 37 -23z"/>
<path d="M1470 200 c0 -5 7 -10 15 -10 8 0 15 5 15 10 0 6 -7 10 -15 10 -8 0
-15 -4 -15 -10z"/>
<path d="M878 239 c-22 -16 -28 -29 -28 -60 0 -28 4 -39 15 -39 10 0 15 10 15
30 0 25 4 30 25 30 21 0 25 -5 25 -30 0 -20 5 -30 15 -30 26 0 20 72 -8 98
-28 26 -25 26 -59 1z"/>
<path d="M890 165 c0 -16 6 -25 15 -25 9 0 15 9 15 25 0 16 -6 25 -15 25 -9 0
-15 -9 -15 -25z"/>
</g>
</svg>
