<?xml version="1.0" standalone="no"?>
<!DOCTYPE svg PUBLIC "-//W3C//DTD SVG 20010904//EN"
 "http://www.w3.org/TR/2001/REC-SVG-20010904/DTD/svg10.dtd">
<svg version="1.0" xmlns="http://www.w3.org/2000/svg"
 width="591.000000pt" height="568.000000pt" viewBox="0 0 591.000000 568.000000"
 preserveAspectRatio="xMidYMid meet">

<g transform="translate(0.000000,568.000000) scale(0.100000,-0.100000)"
fill="#000000" stroke="none">
<path d="M0 5230 c0 -247 3 -450 7 -450 4 0 38 30 75 67 l68 67 0 -182 c0
-120 -3 -181 -10 -177 -5 3 -10 2 -10 -4 0 -5 -11 -8 -25 -5 -14 2 -25 0 -25
-5 0 -5 -18 -12 -40 -16 l-40 -7 0 -48 0 -48 40 -7 c37 -6 57 -25 27 -25 -7 0
-25 -6 -40 -12 l-27 -13 0 -123 c0 -120 0 -122 20 -110 11 7 20 18 20 24 0 6
13 14 29 17 17 4 30 14 34 27 3 13 10 18 20 14 12 -4 17 3 20 28 2 18 5 -65 5
-184 2 -218 -1 -248 -22 -248 -6 0 -28 -5 -49 -11 -36 -10 -38 -12 -35 -50 1
-31 -3 -43 -20 -55 l-22 -15 0 -1337 0 -1337 30 -74 c35 -84 33 -120 -6 -145
l-24 -16 0 -385 0 -385 256 0 c241 0 257 1 281 20 23 18 41 20 154 20 141 0
166 -4 148 -26 -19 -23 25 -17 46 6 17 19 31 20 295 20 152 0 280 -3 283 -7 4
-3 -1 -12 -11 -19 -30 -23 112 -18 181 6 87 31 191 24 125 -8 -20 -9 -15 -11
30 -11 39 -1 61 4 79 19 18 14 41 20 78 20 59 0 72 -7 47 -26 -14 -11 19 -13
206 -14 209 0 226 1 249 20 28 22 115 28 143 10 12 -8 11 -10 -7 -10 -13 0
-23 -4 -23 -10 0 -14 297 -13 302 1 7 22 95 29 401 29 311 0 317 0 317 -20 0
-20 5 -20 472 -18 l471 3 12 34 c15 45 80 101 117 101 15 0 28 -5 28 -12 0 -6
8 -20 18 -31 16 -20 16 -20 -2 -14 -20 8 -53 -19 -75 -61 -11 -22 -11 -22 43
-22 51 0 57 2 71 30 17 33 23 35 60 18 24 -11 24 -12 9 -30 -17 -17 -6 -18
324 -18 l340 0 -11 38 c-6 20 -19 51 -28 69 -10 17 -21 48 -25 67 -11 61 -40
47 -84 -38 -27 -51 -57 -79 -74 -69 -6 4 -25 6 -43 5 -18 -2 -33 2 -33 8 0 15
-21 12 -43 -7 -11 -10 -17 -12 -13 -5 10 16 -15 72 -31 72 -7 0 -13 9 -13 20
0 29 12 25 68 -25 71 -64 102 -59 102 15 0 33 47 93 91 116 17 8 29 23 29 34
0 21 53 60 81 60 9 0 22 7 29 15 16 19 74 19 90 0 10 -12 9 -15 -4 -15 -13 0
-15 -4 -7 -19 15 -28 52 -34 58 -10 6 22 35 25 52 6 14 -17 4 -27 -26 -27
l-24 0 31 -37 c26 -31 102 -188 124 -255 4 -15 18 -18 76 -18 l70 0 0 1190 c0
947 -3 1188 -12 1185 -29 -10 -93 -12 -125 -3 -18 5 -49 23 -68 39 -29 26 -33
34 -25 50 13 23 47 25 69 5 14 -13 24 -12 75 5 32 10 65 24 72 30 12 10 14
273 14 1595 l0 1584 -295 0 -295 0 -1 -42 c-1 -24 -2 -63 -4 -88 -3 -57 -36
-242 -45 -253 -14 -16 -20 59 -11 132 5 40 7 80 4 87 -3 8 -1 20 5 27 5 6 12
38 14 69 3 43 1 59 -10 63 -7 3 -1197 5 -2643 5 l-2629 0 0 -450z m3825 424
c52 -5 51 -6 -5 -14 -54 -8 -90 0 -90 21 0 7 12 8 33 3 17 -3 46 -8 62 -10z
m-2740 -3 c35 -8 29 -9 -40 -10 -44 0 -87 4 -95 9 -19 12 77 13 135 1z m500
-1 c13 -6 -7 -9 -60 -9 -44 0 -89 4 -100 9 -13 6 7 9 60 9 44 0 89 -4 100 -9z
m550 -1 c27 -11 -203 -9 -235 1 -16 6 18 8 95 8 66 -1 129 -5 140 -9z m395 1
c11 -7 4 -10 -27 -10 -23 0 -45 5 -48 10 -8 13 55 13 75 0z m365 0 c26 -11
-200 -11 -235 0 -16 5 20 8 95 8 66 0 129 -3 140 -8z m465 0 c0 -6 -35 -10
-84 -10 -47 0 -88 5 -91 10 -4 6 27 10 84 10 54 0 91 -4 91 -10z m-2794 -123
c19 -17 27 -33 27 -56 0 -46 -31 -73 -92 -79 -32 -3 -56 -11 -67 -23 -9 -11
-23 -19 -30 -19 -8 0 -11 -8 -9 -21 4 -17 2 -19 -10 -9 -12 10 -15 9 -16 -6
-1 -11 -1 -21 -1 -24 0 -3 -8 -7 -19 -7 -27 -2 -24 16 9 51 15 17 19 24 10 17
-30 -23 -20 -4 18 34 19 19 38 34 42 31 4 -2 7 16 7 41 1 37 6 50 28 69 35 30
68 30 103 1z m1307 -29 c3 -10 9 -10 26 0 17 10 21 10 21 -2 0 -20 -38 -30
-55 -16 -8 7 -15 16 -15 21 0 14 18 11 23 -3z m1394 -14 c-9 -9 -28 6 -21 18
4 6 10 6 17 -1 6 -6 8 -13 4 -17z m843 -64 c0 -75 -1 -79 -22 -79 -13 0 -31
-1 -41 -1 -29 -2 -47 20 -47 56 0 52 47 83 78 52 9 -9 12 -4 12 26 0 22 4 35
10 31 6 -3 10 -42 10 -85z m-3333 74 c26 -7 36 -29 23 -53 -6 -12 -5 -22 1
-28 6 -6 9 -23 7 -39 -3 -27 -6 -29 -55 -32 l-53 -3 0 80 0 81 28 0 c15 0 37
-3 49 -6z m1754 -46 c26 -16 30 -23 27 -55 -2 -30 -9 -41 -30 -51 -17 -8 -28
-21 -28 -33 0 -11 -4 -17 -10 -14 -5 3 -10 15 -10 26 0 10 -7 19 -15 19 -8 0
-22 11 -31 25 -21 32 -11 72 20 87 14 6 28 20 31 32 7 20 8 20 12 1 2 -11 17
-28 34 -37z m519 10 c21 -85 25 -86 44 -20 9 34 21 62 26 62 6 0 18 -28 27
-61 18 -66 22 -65 43 19 6 23 15 42 20 42 6 0 10 -2 10 -5 0 -11 -40 -148 -44
-152 -11 -11 -25 11 -37 57 -7 28 -16 50 -19 50 -4 0 -12 -25 -19 -55 -7 -32
-18 -55 -25 -55 -8 0 -21 29 -31 68 -10 37 -20 73 -23 80 -2 6 1 12 7 12 5 0
15 -19 21 -42z m571 21 c25 -25 17 -39 -9 -16 -26 23 -58 21 -76 -5 -21 -30
-20 -61 3 -89 16 -20 23 -22 47 -14 39 14 45 45 9 45 -15 0 -24 4 -20 10 3 6
19 10 36 10 24 0 29 -4 29 -23 0 -33 -20 -56 -57 -63 -68 -13 -109 80 -62 140
25 32 70 35 100 5z m-2735 -28 c19 16 54 1 65 -28 20 -52 -20 -104 -63 -81
-15 7 -18 4 -18 -17 0 -14 -4 -25 -10 -25 -6 0 -10 34 -10 82 0 63 3 79 12 70
8 -8 15 -8 24 -1z m178 -7 c9 -8 16 -24 16 -35 0 -16 -7 -19 -40 -19 -43 0
-50 -9 -24 -31 13 -10 19 -10 36 0 23 14 38 7 21 -10 -15 -15 -59 -14 -78 1
-20 16 -19 74 1 94 8 9 24 16 34 16 10 0 26 -7 34 -16z m90 -31 l24 -48 22 48
c11 26 25 47 30 47 6 0 10 -27 10 -60 0 -33 -4 -60 -10 -60 -5 0 -10 17 -11
38 l0 37 -16 -37 c-8 -21 -19 -38 -24 -38 -5 0 -17 17 -28 38 l-20 37 -1 -37
c0 -21 -4 -38 -10 -38 -6 0 -10 27 -10 60 0 33 4 60 10 60 5 0 21 -21 34 -47z
m208 30 c10 -9 18 -24 18 -35 0 -14 -8 -18 -40 -18 -28 0 -40 -4 -40 -14 0
-19 28 -28 50 -16 23 12 30 13 30 2 0 -5 -12 -14 -26 -21 -39 -17 -74 8 -74
54 0 57 44 83 82 48z m68 -8 c0 -21 5 -25 30 -25 26 0 30 4 30 26 0 14 4 23
10 19 6 -3 10 -31 10 -61 0 -30 -4 -54 -10 -54 -5 0 -10 11 -10 25 0 21 -5 25
-30 25 -25 0 -30 -4 -30 -25 0 -14 -4 -25 -10 -25 -6 0 -10 27 -10 60 0 33 4
60 10 60 6 0 10 -11 10 -25z m130 0 c0 -21 5 -25 30 -25 25 0 30 4 30 25 0 14
5 25 10 25 6 0 10 -27 10 -60 0 -33 -4 -60 -10 -60 -5 0 -10 11 -10 25 0 21
-5 25 -30 25 -25 0 -30 -4 -30 -25 0 -14 -4 -25 -10 -25 -6 0 -10 27 -10 60 0
33 4 60 10 60 6 0 10 -11 10 -25z m130 6 c0 -12 9 -20 29 -24 33 -7 49 -40 31
-62 -7 -8 -28 -15 -46 -15 l-34 0 0 60 c0 33 4 60 10 60 6 0 10 -8 10 -19z
m110 -41 c0 -33 -4 -60 -10 -60 -6 0 -10 27 -10 60 0 33 4 60 10 60 6 0 10
-27 10 -60z m62 11 l3 -35 28 42 c15 23 32 42 37 42 6 0 10 -27 10 -60 0 -68
-17 -82 -22 -18 l-3 42 -28 -42 c-15 -23 -32 -42 -37 -42 -6 0 -10 28 -10 62
0 65 16 71 22 9z m266 -13 c2 -36 -1 -58 -8 -58 -5 0 -10 22 -10 50 0 49 -1
50 -30 50 -29 0 -30 -1 -30 -50 0 -27 -4 -50 -10 -50 -6 0 -10 27 -10 61 l0
60 48 -3 47 -3 3 -57z m52 52 c0 -6 7 -6 19 1 24 16 48 6 62 -25 24 -52 -17
-109 -61 -86 -18 9 -20 8 -20 -15 0 -14 -4 -25 -10 -25 -6 0 -10 33 -10 80 0
47 4 80 10 80 6 0 10 -5 10 -10z m202 -7 c27 -24 24 -79 -6 -98 -59 -39 -117
44 -66 95 24 24 47 25 72 3z m234 -29 c-6 -45 4 -43 34 6 14 22 29 39 35 37
16 -6 16 -117 0 -117 -9 0 -11 11 -8 35 3 20 0 35 -5 35 -6 0 -20 -16 -32 -35
-32 -52 -49 -46 -48 18 1 57 5 70 19 62 5 -4 7 -22 5 -41z m212 -16 c2 -45 0
-58 -11 -58 -10 0 -13 8 -9 25 7 40 -6 75 -28 75 -16 0 -20 -7 -20 -34 0 -46
-9 -66 -28 -66 -12 0 -13 3 -4 12 7 7 12 26 12 44 0 55 8 65 49 62 l36 -3 3
-57z m52 43 c0 -12 9 -20 29 -24 33 -7 42 -23 30 -54 -6 -18 -16 -23 -44 -23
l-35 0 0 60 c0 33 4 60 10 60 6 0 10 -8 10 -19z m390 -47 c0 -30 -4 -54 -10
-54 -6 0 -10 27 -10 61 0 37 4 58 10 54 6 -3 10 -31 10 -61z m95 55 c3 -4 -6
-9 -20 -13 -22 -6 -25 -12 -25 -51 0 -25 -4 -45 -10 -45 -6 0 -10 26 -10 59 0
59 0 59 29 57 16 -1 32 -4 36 -7z m95 -9 c34 -34 26 -50 -25 -50 -47 0 -56 -9
-30 -30 12 -10 21 -10 40 -2 16 8 25 8 25 1 0 -13 -41 -28 -60 -21 -23 7 -40
33 -40 59 0 26 32 63 55 63 8 0 24 -9 35 -20z m230 -30 c0 -36 4 -52 15 -56
26 -11 45 16 45 63 0 27 4 42 10 38 6 -3 10 -30 10 -60 0 -30 -4 -57 -10 -60
-5 -3 -10 -2 -10 4 0 7 -8 7 -23 2 -40 -16 -57 3 -57 64 0 30 5 55 10 55 6 0
10 -23 10 -50z m188 38 c17 -17 16 -111 0 -105 -7 2 -20 0 -30 -4 -11 -6 -23
-3 -38 9 -29 23 -17 50 26 58 21 4 34 12 34 21 0 12 -8 14 -37 8 -33 -6 -35
-5 -24 9 16 19 52 21 69 4z m112 3 c0 -3 -10 -11 -22 -16 -18 -8 -24 -20 -26
-52 -5 -64 -22 -52 -22 15 l0 58 35 1 c19 1 35 -2 35 -6z m-3540 -91 c0 -5 -5
-10 -11 -10 -5 0 -7 5 -4 10 3 6 8 10 11 10 2 0 4 -4 4 -10z m-100 -24 c0 -3
-4 -8 -10 -11 -5 -3 -10 -1 -10 4 0 6 5 11 10 11 6 0 10 -2 10 -4z m48 -198
c7 -7 12 -33 12 -59 l0 -47 -42 2 c-37 1 -43 4 -46 25 -4 26 12 41 46 41 14 0
22 6 22 16 0 13 -7 15 -36 11 -30 -5 -34 -4 -24 8 15 18 52 19 68 3z m62 -13
c0 -32 5 -31 35 3 13 15 27 24 31 19 4 -4 -3 -18 -16 -32 l-24 -25 29 -30 c22
-22 25 -30 13 -30 -9 0 -25 11 -36 25 -11 14 -23 25 -26 25 -3 0 -6 -11 -6
-25 0 -14 -4 -25 -10 -25 -6 0 -10 27 -10 60 0 33 4 60 10 60 6 0 10 -11 10
-25z m190 15 c0 -5 -9 -10 -20 -10 -17 0 -20 -7 -20 -50 0 -27 -4 -50 -10 -50
-5 0 -10 23 -10 50 0 43 -3 50 -20 50 -11 0 -20 5 -20 10 0 6 23 10 50 10 28
0 50 -4 50 -10z m42 -32 l3 -42 28 42 c15 23 32 42 37 42 6 0 10 -27 10 -60 0
-68 -17 -82 -22 -17 l-3 42 -25 -42 c-36 -61 -50 -56 -50 17 0 68 17 82 22 18z
m185 30 c6 -7 10 -33 9 -58 l-1 -45 -42 -3 -43 -3 0 60 0 61 34 0 c18 0 38 -6
43 -12z m63 -28 c0 -22 3 -40 8 -40 4 0 17 18 30 40 12 22 27 40 32 40 6 0 10
-27 10 -60 0 -33 -4 -60 -10 -60 -5 0 -10 19 -10 43 l0 42 -28 -42 c-38 -60
-52 -56 -52 17 0 33 4 60 10 60 6 0 10 -18 10 -40z m219 8 c12 -20 13 -34 5
-55 -8 -24 -15 -28 -47 -28 -32 0 -37 -3 -37 -22 0 -13 -4 -23 -10 -23 -6 0
-10 33 -10 78 l0 79 42 -1 c35 -1 45 -6 57 -28z m123 15 c20 -18 23 -54 8 -84
-7 -13 -21 -19 -45 -19 -24 0 -38 6 -45 19 -34 65 30 132 82 84z m124 -13 c0
-14 3 -31 8 -38 4 -7 4 -21 1 -32 -5 -16 -15 -20 -46 -20 l-39 0 0 61 0 60 38
-3 c32 -3 37 -6 38 -28z m122 18 c7 -7 12 -33 12 -58 l0 -47 -44 -1 c-38 -2
-46 1 -52 20 -8 26 17 48 54 48 15 0 22 5 19 13 -2 6 -18 11 -36 11 -31 -2
-42 10 -18 19 22 10 53 7 65 -5z m65 -17 c-2 -17 3 -21 27 -21 25 0 30 4 30
25 0 14 5 25 10 25 6 0 10 -27 10 -60 0 -33 -4 -60 -10 -60 -5 0 -10 11 -10
25 0 21 -5 25 -30 25 -19 0 -30 -5 -29 -12 3 -25 -1 -38 -11 -38 -6 0 -10 24
-9 60 1 39 6 59 13 57 6 -2 10 -14 9 -26z m387 -541 c11 0 34 -40 27 -47 -3
-2 -15 5 -26 16 -24 24 -40 26 -65 8 -22 -16 -26 -78 -7 -101 17 -21 67 -21
75 0 10 25 7 34 -8 28 -8 -3 -17 -1 -21 5 -4 7 5 11 24 11 25 0 31 -4 31 -22
0 -51 -78 -79 -113 -40 -52 58 -8 164 61 146 8 -2 18 -4 22 -4z m671 -32 c13
-24 6 -92 -11 -113 -16 -20 -55 -19 -74 1 -19 19 -22 103 -3 126 26 33 66 27
88 -14z m447 26 c31 -22 27 -48 -14 -94 l-36 -40 36 0 c20 0 36 -4 36 -10 0
-5 -22 -10 -50 -10 -27 0 -50 3 -50 6 0 4 15 25 33 48 47 58 50 65 37 81 -16
19 -25 19 -45 -1 -9 -9 -19 -13 -23 -9 -7 6 33 45 47 45 4 0 17 -7 29 -16z
m137 -9 c64 -63 -1 -188 -67 -128 -26 23 -25 106 2 133 26 26 36 25 65 -5z
m-2895 -65 c0 -47 -4 -80 -10 -80 -6 0 -10 33 -10 80 0 47 4 80 10 80 6 0 10
-33 10 -80z m149 54 c47 -59 8 -134 -69 -134 l-40 0 0 80 0 80 44 0 c36 0 48
-5 65 -26z m581 12 c0 -8 12 -21 27 -28 49 -24 48 -101 -2 -114 -16 -4 -25
-13 -25 -25 0 -10 -4 -19 -10 -19 -5 0 -9 3 -9 8 3 20 -3 30 -26 40 -32 15
-42 55 -21 87 9 14 23 25 31 25 8 0 15 9 15 20 0 11 5 20 10 20 6 0 10 -7 10
-14z m629 -52 l15 -59 19 63 c11 37 24 61 31 59 6 -2 18 -30 27 -63 l16 -59
12 45 c20 76 22 80 32 80 6 0 8 -8 5 -17 -3 -10 -10 -38 -16 -63 -18 -72 -21
-80 -30 -80 -5 0 -18 28 -28 61 -21 68 -24 68 -42 -8 -6 -29 -17 -53 -24 -53
-7 0 -21 36 -33 81 -14 51 -17 79 -10 76 6 -2 18 -30 26 -63z m546 56 c-3 -5
-22 -10 -41 -10 -30 0 -34 -3 -34 -25 0 -22 4 -25 35 -25 19 0 35 -4 35 -10 0
-5 -16 -10 -35 -10 -31 0 -35 -3 -35 -25 0 -22 4 -25 40 -25 22 0 40 -4 40
-10 0 -5 -22 -10 -50 -10 l-50 0 0 80 0 80 51 0 c31 0 48 -4 44 -10z m70 -53
c11 -31 22 -57 26 -57 3 0 14 27 24 60 10 33 24 60 31 60 8 0 3 -24 -16 -76
-32 -84 -37 -92 -49 -78 -17 19 -61 156 -49 152 7 -3 22 -30 33 -61z m135 -7
l0 -70 40 0 c22 0 40 -4 40 -10 0 -5 -22 -10 -50 -10 l-50 0 0 80 c0 47 4 80
10 80 6 0 10 -30 10 -70z m292 10 c12 -33 26 -60 29 -60 3 0 17 27 30 60 34
85 49 79 49 -20 0 -47 -4 -80 -10 -80 -5 0 -10 26 -10 58 l-1 57 -23 -55 c-13
-30 -28 -56 -33 -57 -5 -2 -20 23 -35 54 l-26 58 -1 -57 c-1 -32 -5 -58 -11
-58 -6 0 -10 33 -10 80 0 100 18 107 52 20z m248 50 c0 -5 -18 -10 -40 -10
-36 0 -40 -2 -40 -25 0 -23 4 -25 41 -25 24 0 38 -4 34 -10 -3 -5 -22 -10 -41
-10 -30 0 -34 -3 -34 -25 0 -22 4 -25 40 -25 22 0 40 -4 40 -10 0 -5 -22 -10
-50 -10 l-50 0 0 80 0 80 50 0 c28 0 50 -4 50 -10z m-2290 -90 c0 -33 -4 -60
-10 -60 -5 0 -10 23 -10 50 0 49 -1 50 -30 50 -29 0 -30 -1 -30 -50 0 -27 -4
-50 -10 -50 -6 0 -10 27 -10 60 l0 60 50 0 50 0 0 -60z m130 41 c27 -52 -2
-107 -52 -97 -25 5 -28 3 -28 -19 0 -14 -4 -25 -10 -25 -6 0 -10 33 -10 78 l0
79 45 1 c35 2 46 -2 55 -17z m128 7 c17 -17 15 -74 -4 -92 -22 -23 -60 -20
-78 6 -20 29 -20 62 0 82 18 19 65 21 82 4z m230 -28 c-2 -22 -1 -40 2 -40 4
0 16 18 29 40 33 59 50 53 50 -20 -1 -40 -5 -60 -13 -60 -7 0 -10 14 -8 40 5
51 -7 51 -38 0 -14 -22 -29 -39 -34 -37 -16 5 -13 117 3 117 9 0 12 -11 9 -40z
m202 -20 c0 -33 -4 -60 -10 -60 -5 0 -10 23 -10 50 0 42 -3 50 -19 50 -15 0
-20 -10 -26 -46 -3 -25 -13 -48 -21 -51 -23 -8 -28 4 -10 22 9 10 16 33 16 56
0 39 0 39 40 39 l40 0 0 -60z m120 0 c0 -33 -4 -60 -10 -60 -5 0 -10 9 -10 20
0 11 -6 20 -13 20 -7 0 -18 -9 -25 -20 -7 -11 -17 -20 -23 -20 -7 0 -5 9 4 24
14 21 14 25 0 38 -25 25 -1 58 42 58 l35 0 0 -60z m60 40 c0 -5 -4 -10 -9 -10
-6 0 -13 5 -16 10 -3 6 1 10 9 10 9 0 16 -4 16 -10z m545 -30 c4 -6 -10 -10
-35 -10 -25 0 -39 4 -35 10 3 6 19 10 35 10 16 0 32 -4 35 -10z m-1968 -173
c-2 -23 -3 -1 -3 48 0 50 1 68 3 42 2 -26 2 -67 0 -90z m1423 118 c0 -8 -4
-15 -9 -15 -13 0 -22 16 -14 24 11 11 23 6 23 -9z m-920 -155 c0 -14 28 -12
33 3 2 6 8 9 13 4 4 -4 0 -15 -9 -25 -13 -12 -21 -14 -34 -6 -20 13 -29 34
-14 34 6 0 11 -4 11 -10z m-210 -69 c0 -50 4 -70 14 -74 9 -4 12 -14 9 -26 -6
-24 -23 -28 -23 -6 0 12 -13 15 -55 15 -42 0 -55 -3 -55 -15 0 -8 -4 -15 -10
-15 -14 0 -12 48 2 52 7 3 14 32 16 71 l4 67 49 0 49 0 0 -69z m128 17 c7 -7
12 -22 12 -35 0 -20 -5 -23 -40 -23 -42 0 -52 -13 -22 -29 11 -6 24 -6 36 1
21 12 36 1 16 -12 -21 -14 -64 -12 -78 2 -17 17 -15 74 4 92 18 19 55 21 72 4z
m67 -32 c-1 -20 1 -36 4 -36 4 0 17 18 31 40 14 22 29 39 35 37 5 -2 10 -29
11 -60 0 -43 -3 -57 -14 -57 -10 0 -12 10 -8 40 3 22 3 40 1 40 -3 0 -17 -18
-31 -40 -38 -57 -55 -53 -53 13 1 28 4 55 6 60 9 16 19 -3 18 -37z m189 38
c17 -7 22 -34 6 -34 -5 0 -10 5 -10 10 0 19 -48 11 -55 -10 -15 -48 23 -84 58
-53 19 17 19 17 16 -2 -6 -28 -68 -34 -86 -9 -39 53 11 121 71 98z m131 -4
c-3 -5 -13 -10 -21 -10 -10 0 -14 -13 -14 -50 0 -27 -4 -50 -10 -50 -5 0 -10
23 -10 50 0 43 -3 50 -20 50 -11 0 -20 5 -20 10 0 6 23 10 51 10 31 0 48 -4
44 -10z m105 -9 c6 -13 7 -22 0 -26 -6 -4 -5 -13 2 -24 19 -31 3 -51 -42 -51
l-40 0 0 60 0 60 35 0 c24 0 37 -6 45 -19z m61 -31 c7 -22 15 -40 19 -40 3 0
11 20 18 45 7 25 16 45 22 45 15 0 11 -18 -18 -90 -19 -44 -33 -66 -47 -69
-19 -3 -19 -3 -2 17 17 19 17 21 -3 71 -22 57 -25 75 -10 66 5 -3 15 -24 21
-45z m173 34 c9 -8 16 -24 16 -35 0 -16 -7 -19 -40 -19 -42 0 -50 -9 -26 -29
11 -9 20 -9 35 -2 28 15 36 14 21 -4 -15 -18 -61 -20 -78 -3 -19 19 -15 85 6
97 25 15 48 13 66 -5z m126 6 c0 -5 -9 -10 -20 -10 -17 0 -20 -7 -20 -50 0
-27 -4 -50 -10 -50 -5 0 -10 23 -10 50 0 43 -3 50 -20 50 -11 0 -20 5 -20 10
0 6 23 10 50 10 28 0 50 -4 50 -10z m180 -45 c0 -30 5 -55 10 -55 6 0 10 -9
10 -20 0 -11 -4 -20 -10 -20 -5 0 -10 7 -10 15 0 11 -12 15 -45 15 -33 0 -45
-4 -45 -15 0 -8 -4 -15 -10 -15 -5 0 -10 11 -10 25 0 14 4 25 9 25 5 0 11 23
15 50 l7 50 39 0 40 0 0 -55z m124 42 c21 -15 24 -70 6 -92 -16 -20 -64 -19
-80 1 -20 23 -16 75 5 90 24 17 46 18 69 1z m74 -8 c-2 -6 -8 -10 -13 -10 -5
0 -11 4 -13 10 -2 6 4 11 13 11 9 0 15 -5 13 -11z m2 -90 c0 -5 -7 -9 -15 -9
-15 0 -20 12 -9 23 8 8 24 -1 24 -14z m3700 -369 c20 -122 59 -265 84 -305 15
-24 66 -156 66 -170 -1 -20 -42 43 -90 137 -57 111 -82 197 -105 351 -15 106
-14 134 8 192 12 29 12 28 15 -25 1 -30 11 -111 22 -180z m-5099 210 c30 -16
23 -55 -17 -100 l-36 -40 36 0 c20 0 36 -4 36 -10 0 -5 -22 -10 -50 -10 -27 0
-50 4 -50 9 0 4 18 29 41 54 23 26 39 55 37 64 -4 23 -46 30 -54 9 -7 -17 -24
-22 -24 -7 0 15 30 41 46 41 9 0 24 -5 35 -10z m143 -12 c23 -33 21 -103 -4
-128 -42 -42 -90 -8 -90 65 0 73 59 113 94 63z m134 10 c22 -22 14 -63 -18
-93 -39 -37 -38 -45 6 -45 19 0 33 -4 30 -9 -6 -9 -84 -13 -98 -5 -5 3 10 26
32 51 22 25 40 54 40 65 0 27 -27 34 -50 13 -26 -24 -38 -11 -15 15 20 22 55
26 73 8z m138 -2 c10 -8 16 -18 11 -22 -4 -4 -13 -2 -19 4 -20 20 -48 14 -58
-14 -13 -34 -13 -41 2 -26 33 33 98 -11 83 -58 -15 -47 -82 -50 -103 -5 -37
82 21 166 84 121z m248 -8 c23 -33 21 -103 -4 -128 -41 -41 -90 -8 -90 63 0
51 22 87 55 87 13 0 31 -10 39 -22z m136 -29 c0 -38 5 -55 18 -65 16 -12 16
-13 0 -14 -9 0 -19 -10 -21 -22 l-4 -23 -8 23 c-6 18 -15 22 -46 22 -22 0 -39
3 -39 8 0 17 78 122 91 122 5 0 9 -23 9 -51z m218 -40 c-4 -91 -21 -94 -21 -4
0 61 -7 79 -22 55 -7 -12 -25 -13 -25 -2 0 13 54 41 63 33 4 -4 7 -41 5 -82z
m132 71 c17 -17 18 -24 9 -41 -8 -15 -8 -24 0 -32 18 -18 13 -45 -11 -61 -30
-21 -54 -20 -78 4 -24 24 -25 34 -4 55 13 12 14 19 5 28 -15 15 -14 33 5 51
21 22 50 20 74 -4z m165 11 c3 -5 -7 -11 -22 -13 -27 -3 -28 -5 -31 -76 -4
-93 -22 -86 -22 9 0 67 -1 69 -26 69 -14 0 -23 4 -19 10 8 13 112 13 120 1z
m106 -1 c29 -16 23 -52 -17 -98 l-36 -42 36 0 c20 0 36 -4 36 -10 0 -5 -22
-10 -50 -10 -27 0 -50 4 -50 9 0 4 18 29 41 54 23 26 39 55 37 64 -4 23 -46
30 -54 9 -7 -17 -24 -22 -24 -7 0 15 30 41 46 41 9 0 24 -5 35 -10z m143 -9
c14 -16 15 -23 6 -41 -9 -16 -9 -25 -1 -33 28 -28 1 -77 -42 -77 -20 0 -64 37
-54 46 4 4 13 -1 21 -11 18 -24 66 -13 66 15 0 15 -9 22 -30 26 -31 7 -32 24
0 24 19 0 30 17 23 38 -6 17 -33 15 -55 -5 -26 -23 -34 -9 -9 16 26 26 53 27
75 2z m192 11 c50 -33 41 -145 -13 -158 -39 -10 -63 20 -63 79 0 68 36 106 76
79z m154 -46 c0 -34 5 -57 13 -60 10 -5 10 -7 0 -12 -7 -3 -13 -12 -13 -20 0
-8 -4 -14 -10 -14 -5 0 -10 7 -10 15 0 11 -11 15 -40 15 -44 0 -45 1 -28 33
59 112 88 126 88 43z m198 42 c22 -22 13 -57 -24 -98 l-36 -40 41 0 c26 0 40
-4 36 -10 -5 -8 -74 -8 -103 -1 -2 1 15 23 38 51 23 27 40 57 38 67 -5 24 -39
29 -55 7 -7 -10 -16 -15 -20 -11 -11 11 28 47 52 47 11 0 26 -5 33 -12z m140
-44 c2 -27 9 -52 15 -56 8 -6 9 -10 1 -15 -6 -5 -14 -17 -18 -28 -8 -19 -8
-19 -17 3 -6 17 -16 22 -44 22 -19 0 -35 5 -35 10 0 21 71 121 83 117 7 -2 13
-25 15 -53z m192 41 c16 -19 5 -34 -12 -17 -20 20 -48 14 -58 -14 -13 -34 -13
-41 2 -26 33 33 96 -6 84 -52 -13 -52 -82 -59 -104 -11 -18 39 -14 79 9 109
23 29 60 34 79 11z m140 -39 c0 -34 5 -56 13 -59 9 -4 9 -8 1 -14 -7 -4 -14
-17 -17 -28 -5 -19 -5 -19 -12 3 -6 18 -15 22 -46 22 -22 0 -39 4 -39 8 0 4
16 33 36 65 46 74 64 75 64 3z m140 34 c17 -17 18 -24 9 -41 -8 -15 -8 -24 0
-32 33 -33 -19 -88 -66 -71 -34 12 -48 48 -26 69 12 12 13 19 4 28 -15 15 -14
33 5 51 21 22 50 20 74 -4z m141 1 c21 -17 22 -22 11 -41 -10 -16 -10 -25 -2
-35 33 -40 -24 -90 -76 -66 -26 11 -33 48 -13 68 8 8 7 16 -2 31 -11 18 -10
24 5 41 24 26 47 27 77 2z m145 -2 c15 -17 16 -23 5 -41 -9 -15 -10 -23 -2
-31 35 -35 -9 -87 -63 -73 -29 7 -45 48 -27 70 9 11 9 19 -1 36 -11 19 -10 24
11 41 30 25 53 24 77 -2z m142 -35 c2 -27 9 -52 15 -56 8 -6 9 -10 1 -15 -6
-5 -14 -17 -18 -28 -8 -19 -8 -19 -17 3 -6 17 -16 22 -44 22 -21 0 -35 5 -35
13 0 21 71 118 83 114 7 -2 13 -26 15 -53z m277 36 c39 -43 14 -150 -35 -150
-36 0 -66 60 -55 110 13 58 56 77 90 40z m138 5 c40 -39 26 -140 -20 -151 -38
-10 -66 24 -66 80 0 70 48 110 86 71z m201 -1 c41 -40 30 -132 -18 -149 -24
-8 -31 -6 -47 14 -24 30 -26 107 -2 133 20 22 46 23 67 2z m146 -4 c41 -41 16
-150 -35 -150 -30 0 -55 38 -55 83 0 76 46 111 90 67z m-2270 -19 c0 -6 -4
-13 -10 -16 -5 -3 -10 1 -10 9 0 9 5 16 10 16 6 0 10 -4 10 -9z m341 -4 c-1
-12 -15 -9 -19 4 -3 6 1 10 8 8 6 -3 11 -8 11 -12z m1659 4 c0 -6 -4 -13 -10
-16 -5 -3 -10 1 -10 9 0 9 5 16 10 16 6 0 10 -4 10 -9z m-380 -26 c0 -20 5
-25 25 -25 14 0 25 -4 25 -10 0 -5 -11 -10 -25 -10 -20 0 -25 -5 -25 -25 0
-14 -4 -25 -10 -25 -5 0 -10 11 -10 25 0 20 -5 25 -25 25 -14 0 -25 5 -25 10
0 6 11 10 25 10 20 0 25 5 25 25 0 14 5 25 10 25 6 0 10 -11 10 -25z m-2720
-35 c0 -5 -15 -10 -34 -10 -19 0 -38 5 -41 10 -4 6 10 10 34 10 23 0 41 -4 41
-10z m380 0 c0 -5 -16 -10 -35 -10 -19 0 -35 5 -35 10 0 6 16 10 35 10 19 0
35 -4 35 -10z m720 -25 c0 -8 -4 -15 -10 -15 -5 0 -10 7 -10 15 0 8 5 15 10
15 6 0 10 -7 10 -15z m342 0 c0 -5 -5 -11 -11 -13 -6 -2 -11 4 -11 13 0 9 5
15 11 13 6 -2 11 -8 11 -13z m1658 0 c0 -8 -4 -15 -9 -15 -13 0 -22 16 -14 24
11 11 23 6 23 -9z m-1322 -26 c-2 -6 -8 -10 -13 -10 -5 0 -11 4 -13 10 -2 6 4
11 13 11 9 0 15 -5 13 -11z m2880 -221 c7 -16 16 -28 22 -28 6 0 8 6 4 13 -5
8 -4 9 4 2 12 -12 52 -122 52 -145 0 -9 17 -49 37 -90 21 -41 39 -79 42 -85 2
-5 -14 13 -37 40 -51 65 -93 147 -131 261 -26 76 -31 107 -30 175 l1 84 13
-100 c7 -55 17 -112 23 -127z m-133 -13 c22 -92 42 -137 118 -259 34 -55 76
-128 92 -161 35 -74 70 -126 130 -196 25 -29 45 -57 45 -62 0 -10 -136 133
-159 167 -8 12 -18 23 -21 26 -8 6 -70 109 -70 115 0 3 -28 53 -63 112 -82
140 -105 200 -110 295 -4 80 3 111 14 61 4 -15 15 -59 24 -98z m-5021 55 c28
-27 26 -98 -4 -122 -51 -41 -120 -7 -120 60 0 81 68 115 124 62z m1239 19 c12
-7 25 -17 29 -23 13 -20 8 -91 -8 -114 -18 -26 -65 -30 -84 -7 -18 21 -6 29
19 13 24 -15 54 -2 59 25 3 14 -2 16 -27 11 -19 -4 -37 -2 -46 6 -23 19 -19
66 7 84 27 19 24 19 51 5z m-113 -9 c0 -5 -15 -10 -34 -10 -26 0 -35 -5 -39
-21 -5 -18 -2 -20 17 -15 30 7 66 -19 66 -49 0 -48 -60 -73 -95 -39 -19 20
-12 32 9 15 22 -19 60 -10 64 15 4 30 -24 51 -49 36 -30 -19 -34 -15 -31 33
l4 45 44 0 c24 0 44 -4 44 -10z m-992 -42 c20 -20 13 -30 -10 -14 -30 21 -58
4 -58 -35 0 -35 23 -48 52 -30 25 15 35 7 18 -14 -16 -20 -54 -19 -74 1 -19
18 -21 75 -4 92 7 7 24 12 38 12 14 0 31 -5 38 -12z m117 2 c-3 -5 -13 -10
-21 -10 -10 0 -14 -13 -14 -50 0 -66 -18 -64 -22 3 -2 31 -8 52 -15 52 -6 0
-15 3 -19 8 -4 4 16 7 45 7 32 0 50 -4 46 -10z m113 -51 l3 -56 -40 -1 c-29
-1 -43 3 -50 16 -14 27 5 52 39 52 20 0 30 5 30 14 0 22 -17 28 -41 16 -11 -7
-24 -9 -27 -5 -11 11 22 25 53 23 29 -3 30 -5 33 -59z m132 1 c0 -33 -4 -60
-10 -60 -5 0 -10 23 -10 50 0 42 -3 50 -19 50 -15 0 -20 -10 -26 -46 -3 -25
-13 -48 -21 -51 -23 -8 -28 4 -10 22 9 10 16 33 16 56 0 39 0 39 40 39 l40 0
0 -60z m124 44 c20 -20 20 -53 0 -82 -18 -26 -56 -29 -78 -6 -19 18 -21 75 -4
92 17 17 64 15 82 -4z m136 1 c19 -22 3 -31 -18 -11 -35 31 -69 -4 -51 -52 9
-23 43 -30 54 -12 12 20 26 10 15 -10 -12 -23 -62 -28 -78 -7 -36 45 -14 107
37 107 16 0 34 -7 41 -15z m60 -4 c0 -14 8 -21 28 -23 54 -6 37 -78 -19 -78
-29 0 -29 1 -29 60 0 33 4 60 10 60 6 0 10 -9 10 -19z m595 -21 c10 -22 21
-40 25 -40 5 0 15 18 24 40 24 61 44 53 45 -20 0 -68 -16 -82 -21 -17 l-4 42
-12 -30 c-26 -59 -34 -60 -58 -13 l-23 43 -1 -42 c0 -24 -4 -43 -10 -43 -6 0
-10 27 -10 60 0 72 18 80 45 20z m145 -2 l0 -43 28 42 c38 60 52 56 52 -17 0
-68 -17 -82 -22 -17 l-3 42 -29 -42 c-16 -24 -33 -43 -37 -43 -5 0 -9 27 -9
60 0 33 4 60 10 60 6 0 10 -19 10 -42z m130 17 c0 -21 5 -25 30 -25 25 0 30 4
30 25 0 14 5 25 10 25 6 0 10 -27 10 -60 0 -33 -4 -60 -10 -60 -5 0 -10 11
-10 24 0 13 -7 26 -15 30 -25 9 -45 -4 -45 -30 0 -13 -4 -24 -10 -24 -6 0 -10
27 -10 60 0 33 4 60 10 60 6 0 10 -11 10 -25z m-755 5 c-3 -5 -10 -10 -16 -10
-5 0 -9 5 -9 10 0 6 7 10 16 10 8 0 12 -4 9 -10z m-3 -85 c0 -5 -5 -11 -11
-13 -6 -2 -11 4 -11 13 0 9 5 15 11 13 6 -2 11 -8 11 -13z m4103 -210 c14 -42
25 -83 24 -89 -1 -23 -59 118 -65 158 -7 57 8 30 41 -69z m-5061 -261 c18 -7
22 -49 5 -60 -8 -5 -6 -10 5 -16 19 -11 21 -49 4 -66 -7 -7 -34 -12 -60 -12
l-48 0 0 80 0 80 39 0 c22 0 46 -3 55 -6z m1186 -74 c0 -47 -4 -80 -10 -80 -6
0 -10 33 -10 80 0 47 4 80 10 80 6 0 10 -33 10 -80z m140 60 c13 -13 20 -33
20 -60 0 -55 -26 -80 -85 -80 l-45 0 0 80 0 80 45 0 c32 0 51 -6 65 -20z
m1880 0 c0 -11 5 -20 12 -20 21 0 48 -33 48 -58 0 -28 -26 -62 -47 -62 -7 0
-13 -9 -13 -20 0 -11 -4 -20 -10 -20 -5 0 -10 9 -10 20 0 11 -5 20 -12 20 -21
0 -48 33 -48 58 0 28 26 62 47 62 7 0 13 9 13 20 0 11 5 20 10 20 6 0 10 -9
10 -20z m2111 -52 c31 -44 15 -33 -22 15 -19 23 -26 36 -16 28 10 -8 27 -27
38 -43z m-5183 20 c7 -7 12 -33 12 -59 l0 -47 -41 2 c-27 0 -46 7 -52 18 -15
23 8 48 44 48 20 0 29 5 29 16 0 13 -7 15 -35 11 -19 -3 -35 -2 -35 3 0 20 60
26 78 8z m77 -15 l24 -28 1 28 c0 15 5 27 10 27 6 0 10 -12 10 -27 l1 -28 24
28 c13 15 30 27 36 27 7 0 1 -12 -14 -28 l-26 -27 25 -33 c31 -39 13 -43 -21
-4 l-24 27 -1 -27 c0 -16 -4 -28 -10 -28 -5 0 -10 12 -10 28 l-1 27 -24 -27
c-34 -40 -52 -35 -22 5 l26 34 -27 26 c-15 15 -21 27 -14 27 7 0 24 -12 37
-27z m165 2 c0 -20 5 -25 24 -25 17 0 26 7 30 25 11 44 21 27 21 -35 0 -35 -4
-59 -10 -57 -5 2 -11 13 -13 25 -2 16 -10 22 -28 22 -19 0 -24 -5 -24 -25 0
-14 -4 -25 -10 -25 -6 0 -10 27 -10 60 0 33 4 60 10 60 6 0 10 -11 10 -25z
m204 -7 c16 -44 -3 -82 -41 -86 -32 -3 -63 25 -63 58 0 9 7 26 16 38 23 34 75
27 88 -10z m246 13 c14 -26 13 -74 -2 -89 -24 -24 -88 -9 -88 21 0 5 7 4 14
-3 18 -14 58 -10 64 8 2 7 -6 12 -22 12 -14 0 -26 5 -26 10 0 6 12 10 26 10
16 0 24 5 22 13 -6 17 -49 21 -59 6 -4 -8 -11 -10 -15 -6 -13 12 18 37 47 37
18 0 32 -7 39 -19z m120 9 c0 -5 -9 -10 -20 -10 -17 0 -20 -7 -20 -50 0 -27
-4 -50 -10 -50 -5 0 -10 23 -10 50 0 43 -3 50 -20 50 -11 0 -20 5 -20 10 0 6
23 10 50 10 28 0 50 -4 50 -10z m120 -22 c13 -25 13 -31 0 -55 -19 -35 -67
-44 -87 -17 -16 22 -17 58 -2 85 16 30 69 22 89 -13z m470 -17 c0 -28 5 -53
10 -56 6 -3 10 -15 10 -26 0 -10 -4 -19 -10 -19 -5 0 -10 7 -10 15 0 11 -12
15 -45 15 -33 0 -45 -4 -45 -15 0 -8 -4 -15 -10 -15 -5 0 -10 11 -10 24 0 14
5 28 10 31 6 3 10 23 10 44 0 47 4 51 52 51 l38 0 0 -49z m130 -11 c0 -33 -4
-60 -10 -60 -5 0 -10 23 -10 50 0 43 -3 50 -20 50 -16 0 -20 -7 -20 -33 0 -35
-23 -77 -36 -64 -4 4 -2 13 4 19 7 7 12 31 12 55 l0 43 40 0 40 0 0 -60z m120
0 c0 -33 -4 -60 -10 -60 -5 0 -10 9 -10 20 0 11 -6 20 -13 20 -7 0 -18 -9 -25
-20 -7 -11 -17 -20 -22 -20 -7 0 -7 7 0 20 8 14 8 26 0 40 -17 32 4 60 45 60
l35 0 0 -60z m176 30 c1 -14 5 -33 9 -43 11 -26 -12 -47 -51 -47 l-34 0 0 61
0 60 38 -3 c32 -3 37 -7 38 -28z m122 -31 l3 -57 -43 2 c-37 1 -43 4 -46 25
-4 26 12 41 46 41 14 0 22 6 22 16 0 13 -7 15 -36 11 -31 -5 -34 -4 -23 9 7 9
25 14 43 12 30 -3 31 -4 34 -59z m62 11 c0 -43 3 -50 20 -50 17 0 20 7 20 50
0 28 5 50 10 50 6 0 10 -22 10 -50 0 -47 2 -50 25 -50 23 0 25 3 25 50 0 28 5
50 10 50 6 0 10 -27 10 -60 l0 -60 -75 0 -75 0 0 60 c0 33 4 60 10 60 6 0 10
-22 10 -50z m250 31 c20 -39 13 -51 -31 -51 -28 0 -39 -4 -36 -12 2 -8 19 -13
41 -12 29 1 34 -1 25 -12 -15 -19 -63 -18 -79 1 -16 19 -15 71 1 91 17 21 66
18 79 -5z m120 9 c0 -5 -13 -10 -30 -10 -29 0 -30 -1 -30 -50 0 -27 -4 -50
-10 -50 -6 0 -10 27 -10 60 l0 60 40 0 c22 0 40 -4 40 -10z m108 -2 c15 -15
16 -63 2 -89 -23 -42 -100 -10 -100 41 0 9 7 26 16 38 17 24 62 30 82 10z
m202 -48 c0 -33 -4 -60 -10 -60 -5 0 -10 23 -10 50 0 49 -1 50 -30 50 -29 0
-30 -1 -30 -50 0 -27 -4 -50 -10 -50 -6 0 -10 27 -10 60 l0 60 50 0 50 0 0
-60z m134 28 c6 -18 6 -38 0 -55 -8 -24 -15 -28 -47 -28 -32 0 -37 -3 -37 -22
0 -13 -4 -23 -10 -23 -6 0 -10 33 -10 78 l0 79 47 -1 c42 -1 49 -4 57 -28z
m136 0 c13 -25 13 -31 0 -55 -31 -56 -100 -37 -100 28 0 61 70 79 100 27z
m220 -10 l0 -43 28 42 c38 60 52 56 52 -17 0 -68 -17 -82 -22 -17 l-3 42 -29
-42 c-40 -60 -52 -56 -48 17 4 68 22 82 22 18z m210 -18 c0 -33 -4 -60 -10
-60 -5 0 -10 23 -10 50 0 47 -2 50 -25 50 -22 0 -25 -4 -25 -34 0 -19 -3 -41
-6 -50 -7 -17 -34 -22 -34 -6 0 6 4 10 9 10 5 0 11 23 15 50 l7 50 39 0 40 0
0 -60z m110 0 c0 -33 -4 -60 -10 -60 -5 0 -10 9 -10 20 0 11 -4 20 -10 20 -5
0 -15 -9 -22 -20 -7 -11 -19 -20 -26 -20 -9 0 -9 6 3 24 11 16 13 26 6 31 -15
9 -14 52 2 58 6 3 24 6 40 6 27 1 27 0 27 -59z m250 41 c20 -39 13 -51 -31
-51 -28 0 -39 -4 -36 -12 2 -8 19 -12 42 -11 32 2 35 1 25 -12 -16 -20 -64
-19 -80 0 -16 19 -15 71 1 91 17 21 66 18 79 -5z m120 9 c0 -5 -13 -10 -30
-10 -29 0 -30 -1 -30 -50 0 -27 -4 -50 -10 -50 -6 0 -10 27 -10 60 l0 60 40 0
c22 0 40 -4 40 -10z m108 -2 c15 -15 16 -63 2 -89 -23 -42 -100 -10 -100 41 0
9 7 26 16 38 17 24 62 30 82 10z m122 -13 c0 -21 5 -25 30 -25 25 0 30 4 30
25 0 14 5 25 10 25 6 0 10 -27 10 -60 0 -33 -4 -60 -10 -60 -5 0 -10 11 -10
25 0 21 -5 25 -30 25 -25 0 -30 -4 -30 -25 0 -14 -4 -25 -10 -25 -6 0 -10 27
-10 60 0 33 4 60 10 60 6 0 10 -11 10 -25z m204 3 c27 -38 20 -48 -29 -48 -37
0 -43 -3 -38 -16 4 -12 14 -15 40 -11 24 4 33 2 30 -6 -6 -19 -57 -20 -78 -1
-36 33 -11 104 36 104 13 0 31 -10 39 -22z m653 -48 c11 -30 25 -84 32 -120 6
-36 22 -95 36 -130 14 -35 24 -65 22 -66 -13 -13 -91 100 -121 176 -15 37 -17
61 -11 129 4 45 10 79 15 75 4 -5 17 -34 27 -64z m-4447 50 c0 -5 -7 -10 -15
-10 -8 0 -15 5 -15 10 0 6 7 10 15 10 8 0 15 -4 15 -10z m0 -91 c0 -5 -7 -9
-15 -9 -15 0 -20 12 -9 23 8 8 24 -1 24 -14z m3044 -16 c-8 -33 -12 -39 -20
-30 -9 9 5 57 16 57 6 0 8 -11 4 -27z m1333 -80 c137 -333 157 -373 183 -373
17 0 110 -87 110 -102 0 -19 -32 -5 -65 29 -19 20 -35 33 -35 29 0 -26 75
-140 128 -195 17 -18 50 -70 86 -136 l27 -50 -33 39 c-69 81 -123 138 -139
147 -16 8 -16 7 -1 -23 9 -18 17 -43 18 -55 2 -21 39 -81 59 -95 5 -4 6 -10 2
-14 -13 -14 -206 187 -260 271 -40 62 -53 75 -55 59 -3 -22 40 -137 62 -164 7
-8 25 -40 41 -70 26 -50 49 -88 124 -199 13 -20 27 -38 30 -41 3 -3 12 -16 19
-30 15 -29 14 -27 -130 138 -50 57 -92 102 -94 99 -3 -2 3 -33 12 -68 21 -84
23 -119 13 -212 -7 -69 0 -225 18 -377 8 -68 4 -145 -7 -148 -6 -2 -10 -8 -10
-13 0 -6 -12 -21 -26 -34 -40 -37 -86 -34 -131 10 -20 19 -46 35 -57 35 -21 0
-106 76 -106 95 0 6 -24 37 -53 69 -48 54 -55 58 -75 47 -12 -6 -22 -16 -22
-22 0 -5 -18 -29 -39 -52 -45 -49 -79 -128 -90 -208 l-7 -56 32 10 c37 11 64
4 64 -17 0 -19 -39 -24 -215 -24 l-150 -1 117 57 c120 58 142 77 113 98 -13
10 -43 -1 -163 -58 -81 -39 -160 -84 -177 -100 -29 -28 -29 -29 -11 -44 11 -7
26 -14 33 -14 7 0 67 -31 132 -69 99 -58 122 -67 136 -57 25 18 10 38 -65 80
-38 22 -67 43 -64 48 6 10 244 11 244 1 0 -5 -9 -19 -20 -33 -14 -18 -20 -41
-20 -85 0 -68 -21 -111 -63 -134 -24 -13 -28 -12 -57 13 -60 50 -115 30 -150
-53 -22 -53 -6 -98 46 -129 51 -31 55 -46 15 -60 -36 -13 -53 -43 -49 -84 2
-19 -2 -33 -9 -35 -7 -3 -13 1 -13 7 0 8 -4 9 -12 3 -37 -27 -56 0 -84 117
-10 41 -23 89 -31 107 -17 42 -19 647 -2 623 9 -13 11 -13 16 -1 4 10 10 5 19
-15 12 -25 13 -26 8 -4 -3 14 -19 53 -35 88 -17 36 -29 79 -29 102 l0 40 188
0 c207 0 257 9 318 55 67 51 86 96 95 223 6 91 11 118 27 136 25 27 53 81 96
181 18 44 50 118 71 164 32 72 36 91 31 131 -4 32 -1 61 10 91 27 73 74 252
74 281 0 30 9 58 19 58 4 0 12 -12 18 -27z m-5097 -118 c0 -21 5 -25 30 -25
25 0 30 4 30 25 0 14 5 25 10 25 6 0 10 -27 10 -60 0 -33 -4 -60 -10 -60 -5 0
-10 11 -10 25 0 21 -5 25 -30 25 -25 0 -30 -4 -30 -25 0 -14 -4 -25 -10 -25
-6 0 -10 27 -10 60 0 33 4 60 10 60 6 0 10 -11 10 -25z m140 -28 c14 -43 22
-40 40 16 6 20 16 37 21 37 12 0 12 0 -17 -80 -25 -68 -55 -102 -69 -80 -3 5
0 10 9 10 23 0 25 21 5 75 -11 28 -19 57 -19 65 0 23 16 -1 30 -43z m122 26
l28 -27 0 27 c0 15 5 27 10 27 6 0 10 -12 10 -27 l0 -27 30 29 c16 16 32 26
35 23 3 -2 -4 -13 -15 -23 -26 -23 -25 -43 2 -72 15 -16 17 -23 8 -23 -8 0
-24 12 -37 28 l-22 27 -1 -27 c0 -16 -4 -28 -10 -28 -5 0 -10 12 -10 28 l-1
27 -24 -27 c-13 -16 -30 -28 -36 -28 -7 0 -3 10 9 23 12 13 22 29 22 37 0 8
-10 24 -22 37 -30 32 -10 29 24 -4z m168 -4 c0 -14 7 -19 29 -19 24 0 28 4 24
19 -3 10 0 22 6 25 8 5 11 -12 11 -53 0 -38 -4 -61 -11 -61 -7 0 -9 10 -7 25
5 22 2 25 -23 25 -24 0 -29 -4 -29 -25 0 -14 -4 -25 -10 -25 -6 0 -10 27 -10
61 0 37 4 58 10 54 6 -3 10 -15 10 -26z m194 15 c20 -20 21 -78 1 -94 -8 -7
-27 -12 -42 -12 -50 0 -71 64 -33 102 24 24 53 26 74 4z m178 3 c7 -8 13 -33
13 -58 l0 -44 -42 -3 -43 -3 0 60 c0 61 0 61 29 61 16 0 36 -6 43 -13z m133
-3 c21 -21 13 -29 -13 -13 -30 19 -52 5 -52 -35 0 -38 20 -52 52 -35 30 16 33
3 4 -16 -24 -16 -28 -16 -51 -1 -24 16 -29 30 -25 71 3 41 55 59 85 29z m125
6 c0 -5 -9 -10 -20 -10 -17 0 -20 -7 -20 -50 0 -27 -4 -50 -10 -50 -5 0 -10
23 -10 50 0 44 -3 50 -21 50 -11 0 -17 5 -14 10 3 6 26 10 51 10 24 0 44 -4
44 -10z m98 -2 c17 -17 16 -112 -1 -105 -8 3 -20 1 -27 -3 -21 -13 -52 8 -48
33 2 15 14 25 36 32 47 14 43 39 -5 31 -35 -6 -37 -5 -19 9 24 18 48 19 64 3z
m122 -3 c7 -8 9 -22 6 -31 -4 -9 -1 -23 5 -30 18 -22 -8 -44 -52 -44 l-39 0 0
53 c0 30 3 57 7 60 12 13 60 7 73 -8z m140 -45 c0 -33 -4 -60 -10 -60 -5 0
-10 23 -10 50 0 42 -3 50 -19 50 -15 0 -21 -11 -27 -47 -6 -33 -15 -49 -26
-51 -16 -3 -16 -1 -3 25 8 15 15 43 15 61 0 31 2 32 40 32 l40 0 0 -60z m118
-2 c2 -47 0 -58 -12 -58 -9 0 -13 6 -10 14 10 25 -16 28 -35 4 -11 -13 -23
-20 -27 -16 -4 4 -1 15 6 23 10 12 10 19 2 27 -30 30 -1 70 48 65 23 -2 25 -6
28 -59z m122 52 c0 -5 -9 -10 -20 -10 -17 0 -20 -7 -20 -50 0 -27 -4 -50 -10
-50 -5 0 -10 23 -10 50 0 44 -3 50 -21 50 -11 0 -17 5 -14 10 3 6 26 10 51 10
24 0 44 -4 44 -10z m40 -9 c0 -12 9 -20 29 -24 33 -7 49 -40 31 -62 -7 -8 -28
-15 -46 -15 l-34 0 0 60 c0 33 4 60 10 60 6 0 10 -8 10 -19z m229 10 c9 -6 12
-18 8 -32 -3 -13 -2 -28 4 -35 19 -23 -1 -44 -41 -44 -44 0 -46 3 -42 70 4 47
6 50 30 50 15 0 33 -4 41 -9z m206 -53 c0 -34 -4 -58 -10 -58 -6 0 -10 17 -10
38 2 52 -4 62 -31 62 -22 0 -24 -4 -24 -50 0 -27 -4 -50 -10 -50 -6 0 -10 27
-10 61 l0 60 48 -3 47 -3 0 -57z m119 46 c25 -24 21 -81 -8 -99 -49 -32 -99
19 -77 78 15 38 58 49 85 21z m140 -6 c-1 -10 -2 -36 -3 -58 -2 -58 -21 -49
-21 10 0 43 -3 50 -20 50 -16 0 -20 -7 -20 -34 0 -46 -9 -66 -28 -66 -12 0
-13 3 -4 12 7 7 12 31 12 53 0 51 5 57 50 53 26 -2 35 -7 34 -20z m116 2 c34
-34 26 -50 -25 -50 -47 0 -56 -9 -29 -31 13 -10 19 -10 36 0 23 14 38 7 21
-10 -18 -18 -65 -13 -80 7 -7 10 -13 28 -13 41 0 26 32 63 55 63 8 0 24 -9 35
-20z m208 -42 c2 -36 -1 -58 -8 -58 -5 0 -10 22 -10 50 0 49 -1 50 -30 50 -29
0 -30 -1 -30 -50 0 -27 -4 -50 -10 -50 -6 0 -10 27 -10 61 l0 60 48 -3 47 -3
3 -57z m113 52 c14 -8 19 -21 19 -50 0 -72 -75 -91 -100 -24 -22 56 28 102 81
74z m147 -47 c2 -29 7 -53 13 -53 12 0 12 -37 0 -44 -5 -3 -11 3 -14 15 -5 17
-12 20 -49 17 -24 -2 -43 -8 -43 -15 0 -6 -4 -15 -9 -20 -5 -4 -6 7 -2 27 4
19 9 51 12 70 9 59 11 61 51 58 l38 -3 3 -52z m62 25 c0 -21 1 -21 28 5 38 37
53 34 17 -3 l-29 -30 29 -30 c18 -19 23 -30 15 -30 -8 0 -24 12 -37 28 l-22
27 -1 -27 c0 -16 -4 -28 -10 -28 -6 0 -10 27 -10 61 0 37 4 58 10 54 6 -3 10
-16 10 -27z m188 -30 c2 -36 -1 -58 -8 -58 -5 0 -10 22 -10 50 0 42 -3 50 -19
50 -19 0 -31 -25 -31 -66 0 -25 -25 -50 -34 -35 -4 5 -2 12 3 15 5 3 12 29 16
57 l7 50 37 -3 36 -3 3 -57z m52 37 c0 -32 13 -32 34 1 35 52 108 5 92 -60
-13 -51 -85 -55 -101 -6 -9 28 -25 25 -25 -5 0 -14 -4 -25 -10 -25 -6 0 -10
27 -10 60 0 33 4 60 10 60 6 0 10 -11 10 -25z m175 -2 c2 -10 4 -22 4 -26 1
-5 11 -7 24 -5 16 2 23 11 25 31 6 51 22 27 22 -33 0 -33 -4 -60 -10 -60 -5 0
-10 9 -10 20 0 16 -7 20 -30 20 -24 0 -33 6 -41 27 -5 14 -7 33 -4 41 6 18 15
11 20 -15z m189 11 c9 -8 16 -24 16 -35 0 -16 -7 -19 -40 -19 -43 0 -50 -9
-24 -31 12 -10 20 -10 35 -1 23 15 29 15 29 2 0 -6 -12 -15 -26 -21 -39 -14
-74 11 -74 53 0 56 49 87 84 52z m66 -9 c0 -21 5 -25 30 -25 25 0 30 4 30 25
0 14 5 25 10 25 6 0 10 -27 10 -60 0 -33 -4 -60 -10 -60 -5 0 -10 11 -10 25 0
21 -5 25 -30 25 -25 0 -30 -4 -30 -25 0 -14 -4 -25 -10 -25 -6 0 -10 27 -10
60 0 33 4 60 10 60 6 0 10 -11 10 -25z m130 -22 l0 -48 31 48 c17 26 35 47 40
47 5 0 9 -27 9 -60 0 -33 -4 -60 -10 -60 -5 0 -10 19 -10 43 l0 42 -28 -42
c-38 -60 -52 -56 -52 17 0 33 4 60 10 60 6 0 10 -21 10 -47z m200 -13 c0 -33
-4 -60 -10 -60 -5 0 -10 9 -10 20 0 11 -4 20 -10 20 -5 0 -15 -9 -22 -20 -7
-11 -19 -20 -27 -20 -12 0 -11 3 2 18 13 15 14 19 1 36 -8 11 -14 23 -14 27 0
17 34 39 61 39 29 0 29 0 29 -60z m60 -50 c0 -5 -7 -10 -16 -10 -8 0 -12 5 -9
10 3 6 10 10 16 10 5 0 9 -4 9 -10z m-1977 -152 c15 12 19 13 15 3 -11 -37
-68 -40 -68 -4 0 16 1 16 17 0 16 -16 18 -16 36 1z m1994 -2 c7 9 16 15 19 11
4 -4 1 -14 -6 -22 -17 -21 -54 -15 -58 9 -4 19 -3 19 14 2 17 -18 18 -18 31 0z
m-449 -10 c-10 -7 -18 -18 -18 -25 0 -6 8 -12 18 -12 16 -1 16 -2 0 -6 -14 -4
-18 -15 -18 -59 0 -30 -4 -54 -10 -54 -5 0 -10 25 -10 55 0 37 -4 55 -12 56
-10 0 -10 2 0 6 6 2 12 13 12 22 0 23 9 31 34 31 20 -1 20 -2 4 -14z m-3558
-76 c0 -100 -18 -106 -22 -7 l-3 72 -40 0 c-25 0 -40 -5 -41 -12 -1 -7 -2 -40
-3 -74 -2 -88 -21 -64 -21 27 l0 74 65 0 65 0 0 -80z m3730 65 c0 -8 10 -20
23 -26 29 -16 37 -28 37 -62 0 -21 -8 -32 -30 -45 -16 -9 -30 -25 -30 -34 0
-10 -4 -18 -10 -18 -5 0 -10 8 -10 18 0 9 -14 25 -30 34 -23 13 -30 24 -30 47
0 31 22 61 46 61 8 0 14 9 14 20 0 11 5 20 10 20 6 0 10 -7 10 -15z m-3598
-49 c23 -34 -10 -96 -51 -96 -53 0 -70 92 -22 117 25 12 57 3 73 -21z m556 6
c27 -35 1 -102 -40 -102 -25 0 -58 27 -58 47 0 7 -4 13 -10 13 -5 0 -10 -13
-10 -30 0 -16 -4 -30 -10 -30 -6 0 -10 27 -10 60 0 33 4 60 10 60 6 0 10 -11
10 -25 0 -14 5 -25 10 -25 6 0 10 5 10 10 0 6 9 19 21 31 22 22 55 19 77 -9z
m253 -9 c5 -13 9 -26 9 -29 0 -2 -21 -4 -46 -4 -47 0 -55 -13 -21 -34 12 -8
22 -7 37 2 23 14 27 1 6 -18 -39 -32 -96 19 -82 74 12 48 79 55 97 9z m709 17
c33 -33 26 -50 -20 -50 -29 0 -40 -4 -40 -15 0 -21 29 -31 51 -17 11 7 20 8
24 2 9 -14 -34 -32 -61 -26 -65 17 -50 114 19 125 4 0 16 -8 27 -19z m241 10
c15 -9 19 -22 19 -64 l0 -54 -41 2 c-22 1 -44 8 -49 16 -14 23 8 50 40 50 20
0 30 5 30 15 0 20 -28 31 -43 16 -14 -14 -27 -14 -27 -1 0 6 10 15 23 20 29
11 26 11 48 0z m369 0 c4 0 13 -13 19 -30 l10 -30 -45 0 c-47 0 -47 0 -38 -24
7 -19 45 -21 62 -4 7 7 12 8 12 2 0 -16 -23 -34 -44 -34 -29 0 -56 29 -56 62
0 33 35 72 57 64 8 -3 18 -6 23 -6z m320 -10 c32 -32 25 -48 -22 -52 -46 -3
-54 -14 -26 -32 13 -8 23 -8 38 2 17 10 20 10 20 -3 0 -19 -43 -30 -68 -16
-53 28 -32 110 31 120 4 0 16 -8 27 -19z m156 -26 c13 -52 -29 -99 -67 -75
-17 10 -19 8 -19 -19 0 -16 -4 -30 -10 -30 -6 0 -10 34 -10 81 0 61 3 80 13
76 6 -2 21 -1 32 3 27 10 53 -5 61 -36z m236 22 c4 -5 3 -17 -2 -25 -4 -8 -3
-22 3 -32 23 -37 -44 -69 -73 -34 -10 12 -6 13 24 8 29 -4 36 -2 36 11 0 9
-12 19 -27 23 l-28 6 28 10 c15 5 27 13 27 18 0 15 -30 23 -43 10 -14 -14 -27
-14 -27 -1 0 26 66 31 82 6z m249 -2 c9 -11 8 -14 -3 -14 -8 0 -19 5 -24 10
-27 27 -64 -23 -44 -60 11 -21 44 -27 55 -10 3 6 11 10 17 10 6 0 3 -9 -7 -20
-10 -11 -26 -20 -37 -20 -24 0 -58 35 -58 60 0 30 43 70 69 63 11 -3 26 -11
32 -19z m127 -2 c30 -38 0 -102 -47 -102 -24 0 -51 31 -51 60 0 60 61 87 98
42z m132 -48 c0 -35 -4 -53 -10 -49 -6 4 -10 24 -8 46 2 44 -10 63 -35 53 -13
-5 -17 -19 -17 -55 0 -27 -4 -49 -10 -49 -6 0 -10 26 -10 59 0 58 1 60 28 63
50 7 62 -7 62 -68z m428 -3 c2 -31 -1 -51 -7 -51 -6 0 -11 5 -11 12 0 9 -3 9
-12 0 -17 -17 -43 -15 -59 4 -18 21 0 48 36 54 16 3 30 10 32 16 6 17 -25 26
-48 14 -13 -8 -19 -7 -19 0 0 19 43 29 65 15 15 -9 21 -25 23 -64z m85 27 c15
23 32 42 37 42 6 0 10 -27 10 -60 0 -68 -17 -82 -22 -17 l-3 42 -25 -42 c-35
-60 -50 -56 -50 15 0 73 13 90 20 26 l5 -48 28 42z m-3733 -8 c0 -27 5 -50 10
-50 6 0 10 -11 10 -25 0 -14 -4 -25 -10 -25 -5 0 -10 7 -10 15 0 11 -12 15
-45 15 -33 0 -45 -4 -45 -15 0 -8 -4 -15 -10 -15 -5 0 -10 11 -10 25 0 14 4
25 9 25 5 0 11 23 15 50 l7 50 39 0 40 0 0 -50z m60 30 c0 -11 4 -20 8 -20 5
0 17 9 27 20 10 11 23 20 28 20 6 0 1 -10 -11 -23 -27 -29 -27 -35 0 -64 12
-13 18 -26 14 -30 -4 -5 -21 8 -37 27 l-28 35 -1 -32 c0 -18 -4 -33 -10 -33
-6 0 -10 27 -10 60 0 33 4 60 10 60 6 0 10 -9 10 -20z m200 -34 c0 -30 -4 -58
-10 -61 -6 -4 -10 13 -10 45 0 37 -4 52 -16 57 -20 8 -34 -13 -34 -53 0 -17
-7 -37 -15 -44 -20 -17 -29 -7 -16 17 5 10 13 35 16 56 6 36 7 37 45 37 l40 0
0 -54z m222 27 c2 -20 9 -28 23 -28 14 0 21 8 23 28 6 51 22 27 22 -33 0 -33
-4 -60 -10 -60 -5 0 -10 11 -10 24 0 21 -6 25 -32 28 -29 3 -33 7 -36 36 -4
39 15 44 20 5z m258 1 c0 -22 4 -25 28 -22 19 2 28 9 30 26 7 46 22 20 22 -38
0 -60 -16 -84 -22 -32 -2 21 -9 28 -30 30 -25 3 -28 0 -28 -27 0 -17 -4 -31
-10 -31 -6 0 -10 27 -10 60 0 33 4 60 10 60 6 0 10 -12 10 -26z m130 -16 l0
-43 28 42 c38 60 52 56 52 -17 0 -33 -4 -60 -10 -60 -5 0 -10 21 -10 48 l0 47
-31 -47 c-17 -27 -35 -48 -40 -48 -5 0 -9 27 -9 60 0 33 4 60 10 60 6 0 10
-19 10 -42z m210 16 c6 -14 10 -27 10 -30 0 -2 -20 -4 -45 -4 -48 0 -48 0 -39
-24 7 -19 45 -21 63 -3 11 10 13 9 9 -3 -3 -8 -17 -19 -32 -25 -24 -8 -31 -6
-47 14 -38 46 -18 101 37 101 28 0 36 -5 44 -26z m190 -24 c0 -27 5 -50 10
-50 6 0 10 -11 10 -25 0 -14 -4 -25 -10 -25 -5 0 -10 7 -10 15 0 11 -12 15
-45 15 -33 0 -45 -4 -45 -15 0 -8 -4 -15 -10 -15 -5 0 -10 11 -10 24 0 14 5
28 10 31 6 3 10 23 10 44 0 47 4 51 52 51 l38 0 0 -50z m260 -10 c0 -33 -4
-60 -10 -60 -5 0 -10 25 -10 55 0 47 -3 55 -19 55 -15 0 -20 -10 -25 -44 -7
-43 -30 -76 -43 -62 -4 4 -1 11 6 15 7 5 16 29 18 55 6 46 6 46 44 46 l39 0 0
-60z m172 18 l3 -42 28 42 c15 23 32 42 37 42 6 0 10 -27 10 -60 0 -68 -17
-82 -22 -18 l-3 42 -28 -42 c-15 -24 -32 -40 -37 -37 -13 8 -13 115 -1 115 6
0 11 -19 13 -42z m191 35 c-21 -4 -23 -10 -23 -59 0 -30 -4 -54 -10 -54 -5 0
-10 23 -10 50 0 43 -3 52 -22 60 -18 7 -10 9 32 8 30 0 45 -3 33 -5z m237 -17
c0 -24 23 -41 41 -30 5 3 9 16 9 30 0 13 5 24 10 24 6 0 10 -27 10 -61 0 -37
-4 -58 -10 -54 -5 3 -10 15 -10 26 0 13 -7 19 -23 19 -13 0 -28 5 -35 12 -15
15 -16 58 -2 58 6 0 10 -11 10 -24z m468 -1 c16 -36 17 -35 -33 -35 -48 0 -48
0 -39 -24 7 -19 45 -21 63 -3 11 10 13 9 9 -3 -3 -8 -17 -19 -32 -25 -24 -8
-31 -6 -47 14 -37 45 -18 101 35 101 25 0 35 -6 44 -25z m1312 -35 c0 -74 -18
-80 -22 -8 -2 40 -7 54 -20 56 -13 2 -18 -7 -23 -42 -7 -45 -29 -76 -43 -61
-4 4 -1 10 5 12 7 3 15 27 19 54 l7 49 38 0 39 0 0 -60z m-1072 -42 c-6 -18
-28 -21 -28 -4 0 9 7 16 16 16 9 0 14 -5 12 -12z m1127 -20 c-8 -37 -12 -44
-21 -35 -9 9 6 67 18 67 6 0 7 -13 3 -32z m-3537 -140 c9 -9 15 -9 24 0 17 17
33 15 18 -3 -7 -8 -20 -15 -30 -15 -10 0 -23 7 -30 15 -15 18 1 20 18 3z m252
2 c0 -5 -9 -10 -21 -10 -23 0 -59 -17 -59 -28 0 -4 14 -7 32 -7 24 0 36 -6 47
-27 14 -25 14 -31 1 -55 -19 -35 -67 -44 -87 -17 -14 20 -17 102 -4 122 13 22
91 40 91 22z m-1050 -67 l0 -27 30 29 c16 16 32 26 35 23 3 -2 -4 -13 -15 -23
-25 -23 -25 -33 2 -62 32 -34 13 -41 -22 -8 l-30 29 0 -27 c0 -15 -4 -27 -10
-27 -6 0 -10 27 -10 60 0 33 4 60 10 60 6 0 10 -12 10 -27z m190 -5 c13 -25
13 -31 0 -55 -17 -31 -62 -42 -86 -22 -17 14 -19 62 -3 90 16 30 69 22 89 -13z
m115 22 c-3 -5 -13 -10 -21 -10 -10 0 -14 -13 -14 -50 0 -27 -4 -50 -10 -50
-5 0 -10 23 -10 50 0 43 -3 50 -20 50 -11 0 -20 5 -20 10 0 6 23 10 51 10 31
0 48 -4 44 -10z m107 -7 c38 -34 13 -103 -37 -103 -32 0 -55 25 -55 60 0 53
53 78 92 43z m146 -15 c20 -42 -2 -83 -46 -83 -27 0 -32 -4 -32 -22 0 -13 -4
-23 -10 -23 -6 0 -10 33 -10 78 l0 78 42 -1 c36 0 45 -4 56 -27z m62 12 c0
-15 7 -20 25 -20 20 0 45 -24 45 -44 0 -15 -35 -36 -61 -36 -29 0 -29 0 -29
60 0 33 4 60 10 60 6 0 10 -9 10 -20z m110 -40 c0 -33 -4 -60 -10 -60 -6 0
-10 27 -10 60 0 33 4 60 10 60 6 0 10 -27 10 -60z m52 18 l3 -42 28 42 c15 23
32 42 37 42 6 0 10 -27 10 -60 0 -68 -17 -82 -22 -18 l-3 42 -28 -42 c-15 -23
-32 -42 -37 -42 -6 0 -10 27 -10 60 0 68 17 82 22 18z m396 30 c15 -15 16 -63
2 -89 -23 -42 -100 -10 -100 41 0 9 7 26 16 38 17 24 62 30 82 10z m117 2 c-3
-5 -13 -10 -21 -10 -10 0 -14 -13 -14 -50 0 -27 -4 -50 -10 -50 -5 0 -10 23
-10 50 0 43 -3 50 -20 50 -11 0 -20 5 -20 10 0 6 23 10 51 10 31 0 48 -4 44
-10z m183 -22 c19 -41 -2 -82 -44 -86 -37 -4 -57 17 -56 59 1 42 19 61 56 57
22 -2 35 -11 44 -30z m117 22 c-3 -5 -13 -10 -21 -10 -10 0 -14 -13 -14 -50 0
-27 -4 -50 -10 -50 -5 0 -10 23 -10 50 0 43 -3 50 -20 50 -11 0 -20 5 -20 10
0 6 23 10 51 10 31 0 48 -4 44 -10z m125 -50 c0 -33 -4 -60 -10 -60 -5 0 -10
23 -10 50 0 49 -1 50 -30 50 -29 0 -30 -1 -30 -50 0 -27 -4 -50 -10 -50 -6 0
-10 27 -10 60 l0 60 50 0 50 0 0 -60z m124 44 c9 -8 16 -28 16 -44 0 -39 -26
-63 -62 -58 -24 4 -28 1 -28 -19 0 -13 -4 -23 -10 -23 -6 0 -10 33 -10 78 l0
79 39 1 c25 1 46 -4 55 -14z m126 -3 c5 -11 10 -37 10 -59 l0 -39 -47 1 c-38
1 -48 5 -51 19 -5 27 16 47 50 47 19 0 28 4 25 13 -2 6 -18 11 -36 11 -17 -1
-31 1 -31 5 0 28 65 29 80 2z m117 7 c6 -7 10 -33 9 -58 l-1 -45 -42 -3 -43
-3 0 60 0 61 34 0 c18 0 38 -6 43 -12z m143 -48 c0 -33 -4 -60 -10 -60 -5 0
-10 23 -10 50 0 43 -3 50 -20 50 -13 0 -21 -8 -25 -25 -3 -14 -7 -36 -10 -50
-5 -24 -35 -36 -35 -15 0 6 4 10 9 10 5 0 12 23 16 50 l7 50 39 0 39 0 0 -60z
m110 0 c0 -33 -4 -60 -10 -60 -5 0 -10 9 -10 20 0 11 -4 20 -10 20 -5 0 -15
-9 -22 -20 -7 -11 -19 -20 -26 -20 -9 0 -9 6 3 24 11 16 13 26 6 31 -15 9 -14
52 2 58 6 3 24 6 40 6 27 1 27 0 27 -59z m124 38 c27 -38 20 -48 -30 -48 -32
0 -44 -4 -41 -12 2 -8 19 -13 41 -12 37 1 48 -9 20 -20 -45 -17 -84 7 -84 51
0 57 64 84 94 41z m116 12 c0 -5 -7 -10 -15 -10 -11 0 -15 -12 -15 -50 0 -27
-4 -50 -10 -50 -5 0 -10 23 -10 50 0 43 -3 50 -20 50 -11 0 -20 5 -20 10 0 6
20 10 45 10 25 0 45 -4 45 -10z m180 -5 c16 -19 5 -34 -12 -17 -32 32 -80 -8
-58 -48 12 -23 40 -26 59 -7 10 10 12 8 9 -8 -5 -31 -61 -33 -82 -3 -20 28
-20 48 0 76 18 26 65 30 84 7z m130 -45 c0 -33 -4 -60 -10 -60 -5 0 -10 23
-10 50 0 42 -3 50 -19 50 -15 0 -20 -10 -26 -46 -3 -25 -13 -48 -21 -51 -20
-7 -32 6 -15 16 7 5 16 29 18 55 6 46 6 46 44 46 l39 0 0 -60z m120 41 c20
-39 13 -51 -31 -51 -28 0 -39 -4 -36 -12 2 -8 19 -13 41 -12 29 1 34 -1 25
-12 -14 -17 -61 -18 -77 -2 -16 16 -16 80 0 96 19 19 66 15 78 -7z m130 -31
c0 -27 5 -50 10 -50 6 0 10 -11 10 -25 0 -14 -4 -25 -10 -25 -5 0 -10 7 -10
15 0 11 -12 15 -45 15 -33 0 -45 -4 -45 -15 0 -8 -4 -15 -10 -15 -15 0 -12 32
5 54 8 11 15 37 15 58 0 38 0 38 40 38 l40 0 0 -50z m70 4 c14 -50 22 -48 40
9 6 20 16 37 21 37 12 0 7 -20 -25 -100 -17 -44 -26 -56 -46 -58 l-25 -3 23
19 23 18 -20 52 c-23 58 -25 72 -12 72 4 0 14 -20 21 -46z m120 15 c0 -26 13
-24 25 4 11 25 58 35 81 16 8 -6 14 -28 14 -49 0 -21 -6 -43 -14 -49 -23 -19
-70 -9 -81 17 -13 30 -25 28 -25 -4 0 -16 -5 -24 -12 -22 -11 4 -13 25 -9 99
1 25 21 15 21 -12z m170 -19 c0 -47 2 -50 25 -50 23 0 25 3 25 50 0 28 5 50
10 50 6 0 10 -22 10 -50 0 -43 3 -50 20 -50 17 0 20 7 20 50 0 28 5 50 10 50
6 0 10 -22 10 -50 0 -27 5 -50 10 -50 6 0 10 -11 10 -25 0 -14 -4 -25 -10 -25
-5 0 -10 7 -10 15 0 12 -15 15 -75 15 l-75 0 0 60 c0 33 4 60 10 60 6 0 10
-22 10 -50z m190 10 c0 -22 3 -40 8 -40 4 0 17 18 30 40 12 22 27 40 32 40 6
0 10 -27 10 -60 0 -33 -4 -60 -10 -60 -5 0 -10 19 -10 43 l0 42 -28 -42 c-38
-60 -52 -56 -52 17 0 33 4 60 10 60 6 0 10 -18 10 -40z m162 -7 l22 -48 20 48
c28 67 46 62 46 -13 0 -33 -4 -60 -10 -60 -5 0 -10 19 -11 43 l0 42 -19 -42
c-11 -24 -23 -43 -28 -43 -5 0 -16 17 -25 38 l-15 37 -1 -37 c-2 -63 -21 -42
-21 22 0 35 4 60 11 60 5 0 20 -21 31 -47z m1698 -68 c11 -13 10 -14 -4 -9 -9
3 -16 10 -16 15 0 13 6 11 20 -6z m-5085 -154 c-3 -6 -19 -11 -35 -11 -19 0
-33 -7 -40 -20 -9 -18 -8 -19 12 -11 52 19 91 -30 67 -83 -23 -50 -91 -36
-102 22 -9 45 10 101 36 107 66 14 73 13 62 -4z m-399 -45 c24 -18 13 -31 -14
-15 -30 19 -52 5 -52 -35 0 -26 5 -36 21 -41 12 -4 26 -2 32 4 6 6 16 11 22
11 5 -1 0 -9 -13 -20 -37 -31 -82 -6 -82 46 0 55 43 81 86 50z m124 -6 c51
-51 -11 -134 -70 -93 -39 28 -16 113 32 113 10 0 27 -9 38 -20z m133 3 c28
-32 26 -77 -6 -97 -30 -20 -63 -10 -77 23 -26 63 40 121 83 74z m207 -44 c0
-42 3 -49 20 -49 18 0 20 7 20 55 0 30 5 55 10 55 6 0 10 -25 10 -56 0 -52 1
-55 23 -52 19 3 23 10 27 58 6 62 15 57 19 -10 2 -25 7 -47 11 -50 7 -5 7 -24
0 -50 -1 -3 -5 5 -10 18 -8 20 -16 22 -80 22 l-70 0 0 61 c0 37 4 58 10 54 6
-3 10 -28 10 -56z m241 51 c11 -6 19 -21 19 -35 0 -22 -4 -25 -40 -25 -43 0
-50 -9 -24 -31 12 -10 20 -10 35 -1 23 15 29 15 29 2 0 -6 -12 -15 -26 -21
-58 -21 -101 55 -57 103 18 20 36 23 64 8z m69 -15 c0 -21 5 -25 30 -25 25 0
30 4 30 25 0 14 5 25 10 25 6 0 10 -27 10 -60 0 -33 -4 -60 -10 -60 -5 0 -10
11 -10 25 0 21 -5 25 -30 25 -25 0 -30 -4 -30 -25 0 -14 -4 -25 -10 -25 -6 0
-10 27 -10 60 0 33 4 60 10 60 6 0 10 -11 10 -25z m142 -24 l3 -35 28 42 c15
24 32 40 37 37 13 -8 13 -115 1 -115 -6 0 -11 19 -13 42 l-3 42 -28 -42 c-15
-23 -32 -42 -37 -42 -6 0 -10 28 -10 62 0 65 16 71 22 9z m192 27 c26 -36 20
-47 -30 -50 -43 -3 -44 -4 -31 -23 13 -17 18 -18 42 -7 20 9 26 9 23 1 -6 -18
-40 -27 -65 -18 -13 4 -24 20 -28 39 -14 64 54 109 89 58z m90 -25 l24 -48 22
48 c11 26 25 47 30 47 6 0 10 -27 10 -60 0 -33 -4 -60 -10 -60 -5 0 -10 17
-11 38 l0 37 -16 -37 c-8 -21 -19 -38 -24 -38 -5 0 -17 17 -28 38 l-20 37 -1
-37 c0 -21 -4 -38 -10 -38 -6 0 -10 27 -10 60 0 33 4 60 10 60 5 0 21 -21 34
-47z m3306 -51 c0 -5 -7 -9 -15 -9 -8 0 -12 4 -9 9 3 4 9 8 15 8 5 0 9 -4 9
-8z m-3160 -12 c0 -5 -4 -10 -10 -10 -5 0 -10 5 -10 10 0 6 5 10 10 10 6 0 10
-4 10 -10z m3027 -37 c-3 -10 -5 -4 -5 12 0 17 2 24 5 18 2 -7 2 -21 0 -30z
m-200 5 c-3 -8 -6 -5 -6 6 -1 11 2 17 5 13 3 -3 4 -12 1 -19z m110 -15 c-3
-10 -5 -4 -5 12 0 17 2 24 5 18 2 -7 2 -21 0 -30z m220 -10 c-3 -10 -5 -2 -5
17 0 19 2 27 5 18 2 -10 2 -26 0 -35z m-1207 -133 c0 -13 -63 -21 -74 -10 -8
8 -7 13 2 19 15 9 72 2 72 -9z m-705 0 c-3 -5 -20 -10 -36 -10 -18 0 -28 4
-24 10 3 6 20 10 36 10 18 0 28 -4 24 -10z m205 0 c0 -5 -11 -10 -25 -10 -14
0 -25 5 -25 10 0 6 11 10 25 10 14 0 25 -4 25 -10z m400 0 c0 -5 -12 -10 -26
-10 -14 0 -23 4 -19 10 3 6 15 10 26 10 10 0 19 -4 19 -10z m-2844 -250 c11
-5 35 -22 52 -40 18 -17 32 -27 32 -21 0 5 -8 15 -17 20 -10 6 -13 11 -6 11
22 0 100 -89 128 -146 37 -76 40 -184 8 -254 -12 -25 -22 -37 -22 -27 -1 10 6
29 15 42 9 14 12 25 7 25 -18 0 -47 -76 -33 -85 6 -4 3 -16 -6 -30 -9 -14 -20
-22 -25 -19 -5 3 -9 -2 -9 -10 0 -9 -7 -16 -16 -16 -8 0 -12 -5 -8 -11 5 -8 1
-8 -13 0 -13 6 -31 7 -49 1 -28 -8 -28 -8 -4 -9 23 -2 24 -3 8 -15 -10 -7 -15
-15 -13 -18 10 -10 -99 -38 -144 -37 -39 1 -42 2 -16 8 18 4 25 9 19 14 -7 4
-26 2 -44 -4 -25 -9 -34 -9 -40 1 -4 7 -12 10 -17 7 -5 -3 -15 -2 -23 3 -11 7
-8 9 10 8 14 -1 31 -6 38 -11 9 -7 12 -3 12 15 0 33 -39 55 -68 39 -27 -14
-33 -14 -30 2 2 6 -5 11 -14 9 -10 -2 -18 3 -18 10 0 7 -9 19 -21 26 -20 13
-19 12 2 -17 25 -34 41 -43 83 -47 19 -1 24 1 15 7 -11 7 -11 9 3 9 17 0 36
-19 21 -21 -70 -9 -79 -7 -114 24 -59 54 -70 75 -54 106 13 27 10 81 -6 81
-13 0 -11 -38 3 -42 8 -3 8 -10 -4 -26 l-15 -22 -11 26 c-16 34 -15 42 3 18
13 -17 14 -16 9 21 -3 22 -10 53 -15 69 -6 19 -6 33 1 40 13 13 13 49 0 62
-12 12 -3 44 12 44 5 0 6 5 3 10 -18 29 148 178 183 165 6 -2 12 0 12 5 0 6
10 10 23 10 18 0 19 -2 7 -10 -11 -8 -5 -10 25 -8 52 2 66 10 35 20 -14 4 0 5
30 1 30 -3 64 -9 76 -13z m4884 -59 c0 -13 -125 -71 -151 -71 -19 0 -20 2 -8
16 32 38 159 82 159 55z m-4113 -178 c-2 -21 -4 -4 -4 37 0 41 2 58 4 38 2
-21 2 -55 0 -75z m860 101 c-3 -3 -12 -4 -19 -1 -8 3 -5 6 6 6 11 1 17 -2 13
-5z m1188 -4 c3 -6 -1 -7 -9 -4 -18 7 -21 14 -7 14 6 0 13 -4 16 -10z m-2098
-77 c-2 -16 -4 -3 -4 27 0 30 2 43 4 28 2 -16 2 -40 0 -55z m651 46 c-3 -8 -7
-3 -11 10 -4 17 -3 21 5 13 5 -5 8 -16 6 -23z m82 21 c0 -5 -4 -10 -10 -10 -5
0 -10 5 -10 10 0 6 5 10 10 10 6 0 10 -4 10 -10z m488 -15 c-3 -3 -9 2 -12 12
-6 14 -5 15 5 6 7 -7 10 -15 7 -18z m139 -72 c-2 -21 -4 -6 -4 32 0 39 2 55 4
38 2 -18 2 -50 0 -70z m203 31 c0 -18 -9 -42 -21 -55 l-21 -24 16 25 c18 28
21 72 5 103 -10 21 -10 21 5 3 9 -11 16 -34 16 -52z m60 57 c0 -6 -4 -13 -10
-16 -5 -3 -10 1 -10 9 0 9 5 16 10 16 6 0 10 -4 10 -9z m118 -53 l-1 -63 -7
55 c-4 30 -7 49 -8 41 -1 -8 -4 -12 -7 -9 -8 7 5 38 16 38 5 0 8 -28 7 -62z
m54 20 c-5 -71 -10 -77 -11 -15 0 31 2 57 7 57 4 0 6 -19 4 -42z m-948 -8 c-4
-19 -1 -38 10 -55 9 -14 12 -25 7 -25 -15 0 -34 58 -27 85 9 35 17 31 10 -5z
m-537 -12 c-3 -7 -5 -2 -5 12 0 14 2 19 5 13 2 -7 2 -19 0 -25z m1730 -20 c-2
-13 -4 -5 -4 17 -1 22 1 32 4 23 2 -10 2 -28 0 -40z m196 34 c-10 -10 -20 -17
-22 -16 -6 5 20 34 30 34 5 0 1 -8 -8 -18z m357 8 c0 -5 -2 -10 -4 -10 -3 0
-8 5 -11 10 -3 6 -1 10 4 10 6 0 11 -4 11 -10z m-2643 -32 c-3 -7 -5 -2 -5 12
0 14 2 19 5 13 2 -7 2 -19 0 -25z m561 -24 l-3 -39 -5 47 c-3 26 -1 43 3 39 5
-5 7 -26 5 -47z m589 4 c-2 -13 -4 -5 -4 17 -1 22 1 32 4 23 2 -10 2 -28 0
-40z m1233 12 c-5 -22 -8 -27 -9 -13 -1 21 9 56 14 51 2 -2 0 -19 -5 -38z
m-863 8 c-3 -8 -6 -5 -6 6 -1 11 2 17 5 13 3 -3 4 -12 1 -19z m140 0 c-3 -8
-6 -5 -6 6 -1 11 2 17 5 13 3 -3 4 -12 1 -19z m920 0 c-3 -8 -6 -5 -6 6 -1 11
2 17 5 13 3 -3 4 -12 1 -19z m-2832 -16 c-6 -7 -45 9 -45 18 0 4 11 3 24 -3
14 -7 23 -13 21 -15z m685 -29 c-11 -17 -11 -17 -6 0 3 10 7 28 7 40 2 22 2
22 6 0 2 -12 -1 -30 -7 -40z m773 50 c-7 -2 -19 -2 -25 0 -7 3 -2 5 12 5 14 0
19 -2 13 -5z m704 1 c-3 -3 -12 -4 -19 -1 -8 3 -5 6 6 6 11 1 17 -2 13 -5z
m-1990 -26 c-3 -8 -6 -5 -6 6 -1 11 2 17 5 13 3 -3 4 -12 1 -19z m1383 -13 c0
-5 -5 -3 -10 5 -5 8 -10 20 -10 25 0 6 5 3 10 -5 5 -8 10 -19 10 -25z m1207
-12 c-3 -10 -5 -2 -5 17 0 19 2 27 5 18 2 -10 2 -26 0 -35z m-2150 -30 c-2
-16 -4 -5 -4 22 0 28 2 40 4 28 2 -13 2 -35 0 -50z m470 45 c-3 -8 -6 -5 -6 6
-1 11 2 17 5 13 3 -3 4 -12 1 -19z m-1920 -25 c-3 -10 -5 -4 -5 12 0 17 2 24
5 18 2 -7 2 -21 0 -30z m2084 10 c-12 -20 -14 -14 -5 12 4 9 9 14 11 11 3 -2
0 -13 -6 -23z m666 -5 c-3 -7 -5 -2 -5 12 0 14 2 19 5 13 2 -7 2 -19 0 -25z
m-926 -1 c-10 -9 -11 -8 -5 6 3 10 9 15 12 12 3 -3 0 -11 -7 -18z m-441 3 c0
-5 -8 -10 -17 -10 -15 0 -16 2 -3 10 19 12 20 12 20 0z m1705 -12 c5 -4 0 -6
-13 -5 -22 1 -27 8 -15 20 3 4 9 4 12 0 3 -4 10 -11 16 -15z m129 -7 c-2 -3
-12 3 -22 13 -16 17 -16 18 5 5 12 -7 20 -15 17 -18z m-969 9 c3 -5 1 -10 -4
-10 -6 0 -11 5 -11 10 0 6 2 10 4 10 3 0 8 -4 11 -10z m-1412 -7 c-7 -2 -19
-2 -25 0 -7 3 -2 5 12 5 14 0 19 -2 13 -5z m1470 0 c-7 -2 -21 -2 -30 0 -10 3
-4 5 12 5 17 0 24 -2 18 -5z m255 0 c-10 -2 -26 -2 -35 0 -10 3 -2 5 17 5 19
0 27 -2 18 -5z m-2555 -75 c3 -21 2 -38 -4 -38 -5 0 -9 12 -10 28 0 15 -2 38
-5 52 -2 17 -1 20 5 10 4 -8 11 -32 14 -52z m801 -33 c-4 -8 -8 -15 -10 -15
-2 0 -4 7 -4 15 0 8 4 15 10 15 5 0 7 -7 4 -15z m144 -16 c-3 -8 -7 -3 -11 10
-4 17 -3 21 5 13 5 -5 8 -16 6 -23z m112 26 c0 -10 -50 -105 -55 -105 -3 0 6
22 20 49 l25 50 -33 4 c-31 4 -31 4 6 5 20 1 37 0 37 -3z m128 -2 c-26 -4 -28
-8 -28 -48 0 -37 3 -44 23 -48 19 -4 18 -4 -5 -6 -27 -1 -28 0 -28 54 l0 55
33 -1 c30 -2 30 -2 5 -6z m-341 -53 c3 -10 2 -11 -4 -4 -4 6 -15 14 -23 17
-11 5 -9 6 4 4 11 -1 21 -9 23 -17z m103 -5 c10 -12 10 -18 0 -30 -13 -16 -46
-20 -54 -7 -2 4 7 8 21 7 34 0 41 22 11 34 -15 6 -17 10 -7 10 9 1 22 -6 29
-14z m268 -21 c-3 -14 -5 -12 -10 9 -3 19 -2 25 4 19 6 -6 8 -18 6 -28z m-404
-23 c-2 -3 -12 3 -22 13 -16 17 -16 18 5 5 12 -7 20 -15 17 -18z m46 25 c0 -2
-8 -10 -17 -17 -16 -13 -17 -12 -4 4 13 16 21 21 21 13z m-366 -115 c7 -11
-22 -36 -31 -28 -3 4 2 10 11 13 14 5 15 9 4 15 -9 6 -9 9 -1 9 6 0 14 -4 17
-9z m4186 -33 c0 -23 -3 -29 -11 -21 -6 6 -8 20 -4 32 9 30 15 26 15 -11z
m-187 -82 c-31 -43 -59 -52 -77 -24 -8 13 -5 22 13 41 13 14 30 23 40 20 10
-2 24 3 31 12 28 34 22 -7 -7 -49z m158 -49 c-8 -8 -11 -7 -11 4 0 20 13 34
18 19 3 -7 -1 -17 -7 -23z m-3401 -156 c0 -6 -4 -13 -10 -16 -5 -3 -10 1 -10
9 0 9 5 16 10 16 6 0 10 -4 10 -9z m840 -74 l0 -84 -39 -1 c-47 -2 -71 18 -71
58 0 39 26 63 62 58 25 -4 28 -2 28 24 0 15 5 28 10 28 6 0 10 -34 10 -83z
m119 -32 c-13 -52 -27 -95 -31 -95 -4 0 -8 4 -8 9 0 16 42 185 48 196 16 25
12 -25 -9 -110z m841 107 c0 -13 -12 -22 -22 -16 -10 6 -1 24 13 24 5 0 9 -4
9 -8z m-2940 -82 c0 -47 -4 -80 -10 -80 -6 0 -10 30 -10 70 l0 70 -45 0 c-25
0 -44 -3 -44 -7 1 -5 1 -36 0 -70 -2 -94 -21 -78 -21 17 l0 80 65 0 65 0 0
-80z m380 61 c0 -12 9 -21 25 -25 15 -4 27 -16 31 -31 10 -40 -3 -74 -31 -81
-16 -4 -25 -13 -25 -25 0 -10 -4 -19 -10 -19 -5 0 -10 8 -10 19 0 10 -9 21
-20 24 -30 8 -46 51 -31 83 6 14 20 28 31 31 11 3 20 14 20 24 0 11 5 19 10
19 6 0 10 -9 10 -19z m549 -18 c6 -21 11 -45 11 -54 0 -39 16 -25 30 27 9 32
21 59 27 61 6 2 20 -24 30 -59 l20 -63 13 58 c12 52 25 76 35 66 8 -9 -39
-159 -50 -159 -6 0 -18 25 -25 55 -7 31 -16 58 -20 60 -4 2 -13 -20 -20 -51
-13 -52 -25 -72 -36 -61 -4 4 -43 141 -44 155 0 1 4 2 10 2 5 0 14 -17 19 -37z
m569 25 c7 -7 12 -19 12 -27 0 -12 -3 -11 -18 2 -22 20 -63 22 -80 5 -15 -15
-16 -63 -2 -89 12 -22 59 -26 78 -7 17 17 15 28 -7 28 -11 0 -23 5 -26 10 -4
6 8 10 29 10 41 0 47 -19 20 -58 -11 -16 -25 -22 -54 -22 -47 0 -70 27 -70 80
0 53 23 80 69 80 20 0 42 -5 49 -12z m802 -70 c21 -57 25 -78 15 -78 -7 0 -16
11 -19 25 -5 20 -13 25 -36 25 -23 0 -33 -6 -40 -25 -5 -14 -14 -25 -20 -25
-14 0 -13 2 15 72 14 34 25 68 25 75 0 8 7 13 16 11 10 -2 27 -33 44 -80z
m809 16 l15 -59 18 63 c11 36 24 62 30 60 7 -3 19 -31 28 -64 l17 -59 12 45
c20 76 22 80 33 80 5 0 8 -6 6 -12 -3 -7 -13 -44 -23 -81 -10 -38 -23 -66 -29
-64 -6 2 -18 30 -27 62 -17 65 -20 64 -40 -12 -7 -29 -18 -53 -24 -53 -7 0
-20 30 -30 68 -10 37 -20 73 -23 81 -3 8 0 12 9 9 7 -2 20 -31 28 -64z m299
54 c7 -7 12 -19 12 -27 0 -12 -3 -11 -18 2 -22 20 -63 22 -80 5 -15 -15 -16
-63 -2 -89 15 -26 66 -26 80 1 9 18 8 20 -15 20 -14 0 -25 5 -25 10 0 6 16 10
35 10 28 0 35 -4 35 -20 0 -54 -93 -83 -124 -38 -9 12 -16 38 -16 58 0 53 23
80 69 80 20 0 42 -5 49 -12z m1121 -86 c9 -5 -83 -92 -97 -92 -8 0 -12 9 -10
23 2 18 -1 21 -22 19 -14 -2 -38 -13 -54 -24 l-29 -21 7 34 c8 45 37 83 65 87
15 2 26 14 33 34 l11 30 46 -44 c25 -23 48 -44 50 -46z m-4402 46 c18 -15 16
-73 -4 -93 -11 -11 -26 -15 -45 -11 -25 5 -28 3 -28 -19 0 -14 -4 -25 -10 -25
-6 0 -10 33 -10 78 l0 78 42 1 c23 1 48 -3 55 -9z m131 0 c16 -16 16 -80 0
-96 -17 -17 -63 -15 -78 4 -8 8 -13 28 -13 44 0 16 5 36 13 44 15 19 61 21 78
4z m232 -30 l0 -43 28 42 c38 60 52 56 52 -17 0 -68 -17 -82 -22 -17 l-3 42
-29 -42 c-16 -24 -33 -43 -37 -43 -5 0 -9 27 -9 60 0 33 4 60 10 60 6 0 10
-19 10 -42z m210 -18 c0 -33 -4 -60 -10 -60 -5 0 -10 23 -10 50 0 43 -3 50
-20 50 -14 0 -21 -9 -25 -37 -4 -21 -8 -44 -10 -50 -5 -15 -35 -17 -35 -3 0 6
4 10 10 10 5 0 12 23 16 50 l7 50 38 0 39 0 0 -60z m50 41 c0 -14 8 -21 26
-23 63 -7 55 -71 -10 -76 l-36 -3 0 60 c0 34 4 61 10 61 6 0 10 -9 10 -19z
m390 -41 c0 -33 -4 -60 -10 -60 -6 0 -10 27 -10 60 0 33 4 60 10 60 6 0 10
-27 10 -60z m100 50 c0 -6 -9 -10 -19 -10 -22 0 -31 -19 -31 -66 0 -19 -4 -34
-10 -34 -6 0 -10 26 -10 58 l0 59 35 1 c19 1 35 -3 35 -8z m107 -19 c16 -33 9
-41 -38 -41 -28 0 -39 -4 -36 -12 2 -8 19 -13 41 -12 37 1 48 -9 20 -20 -62
-24 -106 34 -73 95 15 29 69 22 86 -10z m223 -21 c0 -47 2 -50 25 -50 17 0 25
6 26 18 0 9 2 30 2 46 1 16 7 31 14 33 8 3 11 -14 10 -55 l-1 -59 -45 1 -46 1
-3 58 c-2 35 1 57 8 57 5 0 10 -22 10 -50z m186 36 c5 -13 8 -66 5 -91 0 -6
-20 -11 -43 -10 -38 0 -43 3 -46 24 -4 26 12 41 46 41 14 0 22 6 22 16 0 13
-7 15 -36 11 -30 -5 -34 -4 -24 8 16 19 69 19 76 1z m104 3 c0 -5 -9 -9 -20
-9 -17 0 -20 -7 -20 -50 0 -33 -4 -50 -12 -50 -9 0 -13 18 -13 59 l0 59 33 0
c17 0 32 -4 32 -9z m648 -51 c2 -36 -1 -58 -8 -58 -5 0 -10 22 -10 51 0 47 -2
50 -22 47 -20 -3 -23 -10 -26 -50 -4 -64 -22 -61 -22 3 0 47 -2 50 -22 47 -20
-3 -23 -10 -26 -50 -4 -68 -22 -59 -22 11 l0 58 78 -1 77 -1 3 -57z m124 49
c11 -18 10 -107 -2 -107 -5 0 -10 23 -10 50 0 46 -2 50 -24 50 -27 0 -36 -16
-36 -66 0 -19 -4 -34 -10 -34 -6 0 -10 26 -10 58 l0 58 42 1 c24 1 46 -3 50
-10z m126 1 c7 -7 12 -22 12 -35 0 -20 -5 -23 -41 -23 -28 0 -39 -4 -36 -12 2
-8 19 -13 41 -12 29 1 34 -1 25 -12 -15 -19 -54 -18 -73 2 -35 35 -10 104 38
104 12 0 27 -5 34 -12z m132 5 c0 -5 -14 -26 -31 -48 l-30 -40 30 -3 c48 -5
37 -22 -14 -22 -25 0 -45 4 -45 9 0 4 14 26 31 47 l31 39 -31 3 c-48 5 -37 22
14 22 25 0 45 -3 45 -7z m50 -53 c0 -33 -4 -60 -10 -60 -6 0 -10 27 -10 60 0
33 4 60 10 60 6 0 10 -27 10 -60z m108 48 c7 -7 12 -33 12 -58 l0 -47 -41 1
c-27 1 -45 7 -52 18 -15 23 8 48 45 48 19 0 28 4 25 13 -2 6 -18 11 -36 11
-30 -2 -39 5 -24 19 11 11 58 8 71 -5z m2349 -103 c24 -9 40 -21 37 -26 -6
-11 -73 16 -94 38 -17 18 -17 18 57 -12z m-1747 5 c0 -5 -2 -10 -4 -10 -3 0
-8 5 -11 10 -3 6 -1 10 4 10 6 0 11 -4 11 -10z m137 -42 c-3 -7 -5 -2 -5 12 0
14 2 19 5 13 2 -7 2 -19 0 -25z m-12 -28 c-3 -5 -12 -10 -18 -10 -7 0 -6 4 3
10 19 12 23 12 15 0z"/>
<path d="M513 5504 c-3 -8 2 -23 11 -32 15 -15 17 -15 32 0 21 21 11 48 -16
48 -11 0 -23 -7 -27 -16z"/>
<path d="M394 5378 l-19 -23 23 19 c21 18 27 26 19 26 -2 0 -12 -10 -23 -22z"/>
<path d="M4027 5433 c-11 -11 -8 -58 5 -71 31 -31 71 15 49 57 -11 20 -41 28
-54 14z"/>
<path d="M720 5455 c0 -21 5 -25 29 -25 31 0 46 21 28 39 -6 6 -21 11 -34 11
-18 0 -23 -6 -23 -25z"/>
<path d="M720 5379 c0 -28 3 -31 23 -25 12 3 28 6 35 6 8 0 12 9 10 23 -2 17
-11 23 -35 25 -31 3 -33 1 -33 -29z"/>
<path d="M2450 5420 c-13 -24 -5 -56 15 -64 12 -4 15 4 15 39 0 48 -12 58 -30
25z"/>
<path d="M2500 5395 c0 -25 4 -45 8 -45 31 0 45 73 16 84 -24 9 -24 9 -24 -39z"/>
<path d="M877 5433 c-12 -12 -7 -60 7 -72 30 -25 66 22 45 61 -10 18 -39 24
-52 11z"/>
<path d="M1007 5434 c-15 -15 -6 -24 24 -24 20 0 29 4 27 13 -5 14 -40 21 -51
11z"/>
<path d="M1307 5434 c-15 -15 -6 -24 24 -24 20 0 29 4 27 13 -5 14 -40 21 -51
11z"/>
<path d="M1690 5375 c0 -26 14 -31 39 -16 19 12 6 41 -19 41 -15 0 -20 -7 -20
-25z"/>
<path d="M2190 5426 c-15 -19 -9 -56 12 -69 34 -22 66 41 36 71 -16 16 -33 15
-48 -2z"/>
<path d="M2322 5428 c-28 -28 -2 -88 33 -74 21 8 29 31 21 61 -7 27 -34 33
-54 13z"/>
<path d="M2880 5374 c0 -33 33 -30 38 4 3 17 -2 22 -17 22 -16 0 -21 -6 -21
-26z"/>
<path d="M3400 5425 c-11 -13 -7 -15 25 -15 32 0 36 2 25 15 -7 8 -18 15 -25
15 -7 0 -18 -7 -25 -15z"/>
<path d="M3820 5370 c0 -22 20 -26 38 -8 19 19 14 28 -13 28 -18 0 -25 -5 -25
-20z"/>
<path d="M340 5066 c0 -22 19 -30 35 -16 22 18 18 30 -10 30 -15 0 -25 -6 -25
-14z"/>
<path d="M820 5115 c0 -9 9 -15 25 -15 16 0 25 6 25 15 0 9 -9 15 -25 15 -16
0 -25 -6 -25 -15z"/>
<path d="M820 5066 c0 -19 14 -28 34 -20 25 10 19 34 -9 34 -15 0 -25 -6 -25
-14z"/>
<path d="M1086 5114 c-11 -29 -6 -53 13 -64 36 -19 69 38 39 68 -17 17 -45 15
-52 -4z"/>
<path d="M1216 5114 c-17 -45 11 -83 47 -63 32 18 18 79 -18 79 -13 0 -26 -7
-29 -16z"/>
<path d="M1350 5115 c0 -8 9 -15 20 -15 11 0 20 7 20 15 0 8 -9 15 -20 15 -11
0 -20 -7 -20 -15z"/>
<path d="M1352 5063 c4 -20 18 -26 37 -14 18 12 5 31 -20 31 -14 0 -19 -6 -17
-17z"/>
<path d="M1464 5069 c-3 -6 -1 -15 7 -19 14 -9 49 5 49 20 0 14 -47 13 -56 -1z"/>
<path d="M2582 4558 c-13 -13 -16 -75 -6 -102 8 -22 41 -20 54 3 14 28 12 63
-6 89 -17 25 -25 27 -42 10z"/>
<path d="M3182 4558 c-13 -13 -16 -75 -6 -102 9 -23 41 -20 55 5 13 26 5 89
-13 101 -17 10 -22 10 -36 -4z"/>
<path d="M400 4500 c0 -60 0 -60 29 -60 51 0 81 69 45 104 -8 9 -29 16 -45 16
-29 0 -29 0 -29 -60z"/>
<path d="M1020 4505 c-10 -12 -10 -21 -2 -40 17 -37 32 -30 32 15 0 42 -9 50
-30 25z"/>
<path d="M1070 4480 c0 -29 4 -40 15 -40 20 0 35 40 23 63 -17 32 -38 20 -38
-23z"/>
<path d="M757 4513 c-11 -11 -8 -48 5 -61 31 -31 71 9 54 53 -5 15 -47 21 -59
8z"/>
<path d="M885 4501 c-11 -36 3 -63 33 -59 24 3 27 8 27 38 0 30 -3 35 -27 38
-19 2 -28 -2 -33 -17z"/>
<path d="M1452 4503 c5 -26 38 -29 38 -4 0 15 -6 21 -21 21 -14 0 -19 -5 -17
-17z"/>
<path d="M360 4223 c0 -21 -3 -48 -6 -60 -6 -21 -3 -23 30 -23 l36 0 0 60 0
60 -30 0 c-28 0 -30 -3 -30 -37z"/>
<path d="M507 4214 c-15 -15 -6 -24 24 -24 20 0 29 4 27 13 -5 14 -40 21 -51
11z"/>
<path d="M1000 4205 c0 -11 7 -15 23 -13 12 2 22 8 22 13 0 6 -10 11 -22 13
-16 2 -23 -2 -23 -13z"/>
<path d="M1000 4151 c0 -15 5 -19 21 -16 27 5 33 11 24 24 -11 19 -45 13 -45
-8z"/>
<path d="M1237 4214 c-15 -15 -6 -24 24 -24 20 0 29 4 27 13 -5 14 -40 21 -51
11z"/>
<path d="M1530 4175 c0 -41 2 -45 25 -45 23 0 25 4 25 45 0 41 -2 45 -25 45
-23 0 -25 -4 -25 -45z"/>
<path d="M1661 4202 c-20 -38 8 -79 45 -65 10 4 14 16 12 42 -2 28 -8 37 -25
39 -13 2 -26 -4 -32 -16z"/>
<path d="M480 3941 c-26 -49 1 -127 37 -105 22 13 30 88 12 110 -16 20 -36 18
-49 -5z"/>
<path d="M754 3886 c-10 -26 1 -51 23 -54 28 -4 50 32 32 54 -15 18 -48 18
-55 0z"/>
<path d="M1000 3941 c-26 -49 1 -127 37 -105 22 13 30 88 12 110 -16 20 -36
18 -49 -5z"/>
<path d="M1151 3910 l-22 -40 25 0 c24 0 26 4 26 40 0 22 -1 40 -3 40 -2 0
-13 -18 -26 -40z"/>
<path d="M1484 3945 c-4 -9 -2 -21 4 -27 16 -16 47 -5 47 17 0 26 -42 34 -51
10z"/>
<path d="M1492 3881 c-20 -12 -10 -46 13 -49 32 -4 52 14 39 35 -13 21 -33 27
-52 14z"/>
<path d="M2112 3948 c-13 -13 -16 -75 -6 -102 8 -22 41 -20 54 3 30 58 -9 138
-48 99z"/>
<path d="M2256 3910 l-26 -40 30 0 c28 0 30 2 30 40 0 22 -2 40 -4 40 -2 0
-15 -18 -30 -40z"/>
<path d="M2596 3910 l-26 -40 30 0 c28 0 30 2 30 40 0 22 -2 40 -4 40 -2 0
-15 -18 -30 -40z"/>
<path d="M2774 3886 c-11 -28 1 -51 25 -51 32 0 49 28 32 49 -17 20 -50 21
-57 2z"/>
<path d="M2933 3915 c-29 -43 -29 -45 2 -45 23 0 25 4 25 40 0 22 -1 40 -2 40
-2 0 -13 -16 -25 -35z"/>
<path d="M3054 3945 c-8 -19 3 -35 25 -35 26 0 44 23 29 38 -17 17 -47 15 -54
-3z"/>
<path d="M3057 3883 c-11 -10 -8 -41 4 -48 19 -12 59 4 59 24 0 25 -45 42 -63
24z"/>
<path d="M3200 3945 c-16 -19 -4 -35 25 -35 13 0 27 5 30 10 8 13 -13 40 -30
40 -7 0 -18 -7 -25 -15z"/>
<path d="M3203 3883 c-16 -6 -17 -39 -2 -48 19 -12 59 4 59 24 0 25 -27 37
-57 24z"/>
<path d="M3342 3948 c-16 -19 1 -40 29 -36 16 2 24 10 24 23 0 24 -36 33 -53
13z"/>
<path d="M3343 3883 c-23 -9 -15 -42 11 -49 30 -7 46 1 46 26 0 24 -28 35 -57
23z"/>
<path d="M3496 3910 l-26 -40 30 0 c28 0 30 2 30 40 0 22 -2 40 -4 40 -2 0
-15 -18 -30 -40z"/>
<path d="M3767 3953 c-3 -5 -8 -22 -11 -39 -15 -69 40 -118 62 -54 15 40 -2
100 -28 100 -10 0 -21 -3 -23 -7z"/>
<path d="M3901 3928 c-16 -46 2 -100 32 -96 16 2 24 13 30 38 18 75 -38 127
-62 58z"/>
<path d="M4111 3946 c-18 -22 -10 -97 12 -110 36 -22 63 56 37 105 -13 23 -33
25 -49 5z"/>
<path d="M4251 3946 c-18 -22 -10 -97 12 -110 36 -22 63 56 37 105 -13 23 -33
25 -49 5z"/>
<path d="M362 3644 c-24 -17 -30 -61 -12 -95 12 -22 59 -26 78 -7 21 21 15 85
-10 102 -12 9 -25 16 -28 16 -3 0 -16 -7 -28 -16z"/>
<path d="M1642 3648 c-21 -21 -8 -68 19 -68 10 0 39 30 39 40 0 10 -29 40 -39
40 -4 0 -12 -5 -19 -12z"/>
<path d="M744 3556 c-18 -14 -18 -15 -1 -21 23 -9 47 1 47 20 0 19 -20 19 -46
1z"/>
<path d="M1005 3606 c-24 -17 -17 -70 11 -74 28 -4 48 22 40 52 -7 29 -28 39
-51 22z"/>
<path d="M1260 3555 c0 -18 5 -25 20 -25 24 0 28 35 4 44 -23 9 -24 8 -24 -19z"/>
<path d="M345 3023 c2 -10 4 -22 4 -26 1 -5 13 -7 29 -5 19 2 27 9 27 23 0 15
-8 21 -32 23 -26 3 -31 0 -28 -15z"/>
<path d="M343 2945 c0 -24 3 -26 36 -23 28 2 36 7 36 23 0 16 -8 21 -36 23
-33 3 -36 1 -36 -23z"/>
<path d="M1650 2980 c0 -60 0 -60 29 -60 37 0 61 23 61 60 0 37 -24 60 -61 60
-29 0 -29 0 -29 -60z"/>
<path d="M3564 2986 c-10 -25 0 -61 19 -64 14 -3 17 4 17 37 0 30 -4 41 -15
41 -9 0 -18 -6 -21 -14z"/>
<path d="M3620 2960 c0 -34 3 -41 18 -38 12 2 17 13 17 38 0 25 -5 36 -17 38
-15 3 -18 -4 -18 -38z"/>
<path d="M487 2943 c-4 -3 -2 -12 4 -19 12 -15 49 -2 49 16 0 11 -43 14 -53 3z"/>
<path d="M915 2981 c-11 -36 3 -63 33 -59 24 3 27 8 27 38 0 30 -3 35 -27 38
-19 2 -28 -2 -33 -17z"/>
<path d="M1404 2986 c-12 -32 0 -61 28 -64 22 -3 29 2 34 22 7 31 -10 56 -38
56 -10 0 -21 -6 -24 -14z"/>
<path d="M1878 2960 c-3 -38 -2 -40 24 -40 26 0 28 3 28 40 0 36 -3 40 -24 40
-21 0 -24 -6 -28 -40z"/>
<path d="M2135 2990 c-9 -15 4 -30 26 -30 12 0 19 7 19 20 0 21 -33 29 -45 10z"/>
<path d="M2320 2985 c0 -8 9 -15 20 -15 11 0 20 7 20 15 0 8 -9 15 -20 15 -11
0 -20 -7 -20 -15z"/>
<path d="M2320 2936 c0 -11 9 -16 26 -16 31 0 28 23 -4 28 -15 2 -22 -2 -22
-12z"/>
<path d="M2430 2934 c0 -10 7 -14 22 -12 32 5 35 28 4 28 -17 0 -26 -5 -26
-16z"/>
<path d="M2747 2994 c-15 -15 -6 -24 24 -24 20 0 29 4 27 13 -5 14 -40 21 -51
11z"/>
<path d="M2965 2981 c-11 -36 3 -63 33 -59 24 3 27 8 27 38 0 30 -3 35 -27 38
-19 2 -28 -2 -33 -17z"/>
<path d="M3301 2986 c-8 -10 -11 -26 -7 -42 5 -20 12 -25 34 -22 24 3 27 7 27
38 0 28 -4 36 -21 38 -11 2 -26 -4 -33 -12z"/>
<path d="M3434 2986 c-12 -32 0 -61 28 -64 29 -4 44 22 33 58 -7 24 -53 28
-61 6z"/>
<path d="M3990 2980 c0 -13 7 -20 20 -20 13 0 20 7 20 20 0 13 -7 20 -20 20
-13 0 -20 -7 -20 -20z"/>
<path d="M4237 2994 c-15 -15 -6 -24 24 -24 20 0 29 4 27 13 -5 14 -40 21 -51
11z"/>
<path d="M4461 2986 c-8 -10 -11 -26 -7 -42 5 -20 12 -25 34 -22 24 3 27 7 27
38 0 28 -4 36 -21 38 -11 2 -26 -4 -33 -12z"/>
<path d="M4786 2985 c-4 -12 3 -15 29 -15 26 0 33 3 29 15 -4 8 -16 15 -29 15
-13 0 -25 -7 -29 -15z"/>
<path d="M5177 1951 c-22 -37 -22 -36 8 -37 21 -2 23 1 15 12 -7 7 -9 22 -5
34 9 28 2 25 -18 -9z"/>
<path d="M5290 1930 c0 -5 5 -10 10 -10 6 0 10 5 10 10 0 6 -4 10 -10 10 -5 0
-10 -4 -10 -10z"/>
<path d="M5166 1875 c-4 -10 1 -15 14 -15 11 0 20 7 20 15 0 8 -6 15 -14 15
-8 0 -16 -7 -20 -15z"/>
<path d="M901 2686 c-16 -19 -7 -64 14 -73 25 -9 46 17 43 51 -3 35 -36 48
-57 22z"/>
<path d="M1090 2685 c0 -11 7 -15 23 -13 12 2 22 8 22 13 0 6 -10 11 -22 13
-16 2 -23 -2 -23 -13z"/>
<path d="M1090 2630 c0 -16 5 -21 23 -18 12 2 22 10 22 18 0 8 -10 16 -22 18
-18 3 -23 -2 -23 -18z"/>
<path d="M1440 2636 c0 -19 14 -28 34 -20 25 10 19 34 -9 34 -15 0 -25 -6 -25
-14z"/>
<path d="M1560 2685 c0 -9 9 -15 25 -15 16 0 25 6 25 15 0 9 -9 15 -25 15 -16
0 -25 -6 -25 -15z"/>
<path d="M1562 2633 c4 -22 38 -30 49 -12 11 19 2 29 -27 29 -19 0 -25 -5 -22
-17z"/>
<path d="M1817 2694 c-15 -16 -6 -34 17 -34 17 0 24 5 22 18 -3 18 -27 28 -39
16z"/>
<path d="M2040 2635 c0 -28 21 -33 40 -10 15 18 5 35 -21 35 -14 0 -19 -7 -19
-25z"/>
<path d="M2220 2685 c0 -8 9 -15 20 -15 11 0 20 7 20 15 0 8 -9 15 -20 15 -11
0 -20 -7 -20 -15z"/>
<path d="M2220 2630 c0 -16 5 -21 23 -18 12 2 22 10 22 18 0 8 -10 16 -22 18
-18 3 -23 -2 -23 -18z"/>
<path d="M2531 2682 c-20 -38 8 -79 45 -65 10 4 14 16 12 42 -2 28 -8 37 -25
39 -13 2 -26 -4 -32 -16z"/>
<path d="M2790 2685 c-11 -13 -7 -15 25 -15 32 0 36 2 25 15 -7 8 -18 15 -25
15 -7 0 -18 -7 -25 -15z"/>
<path d="M3111 2682 c-20 -38 8 -79 45 -65 10 4 14 16 12 42 -2 28 -8 37 -25
39 -13 2 -26 -4 -32 -16z"/>
<path d="M3250 2671 c0 -16 -3 -36 -6 -45 -5 -13 1 -16 25 -16 30 0 31 1 31
45 0 41 -2 45 -25 45 -21 0 -25 -5 -25 -29z"/>
<path d="M3664 2675 c-3 -14 -4 -32 0 -40 14 -39 66 -23 66 19 0 47 -55 64
-66 21z"/>
<path d="M3927 2694 c-15 -15 -6 -24 24 -24 20 0 29 4 27 13 -5 14 -40 21 -51
11z"/>
<path d="M4317 2686 c-7 -18 1 -26 25 -26 11 0 18 7 18 20 0 23 -35 28 -43 6z"/>
<path d="M4138 2389 c-22 -12 -23 -52 -3 -69 21 -18 27 -9 23 38 -3 36 -5 39
-20 31z"/>
<path d="M4180 2355 c0 -46 7 -54 28 -33 22 22 8 78 -20 78 -4 0 -8 -20 -8
-45z"/>
<path d="M511 2386 c-7 -8 -11 -27 -9 -43 2 -22 8 -28 27 -28 33 0 48 26 33
59 -13 29 -33 33 -51 12z"/>
<path d="M1072 2388 c-18 -18 -15 -68 4 -75 39 -15 69 40 39 71 -20 19 -27 20
-43 4z"/>
<path d="M1322 2387 c-15 -17 -6 -27 25 -27 18 0 24 5 21 17 -4 22 -31 28 -46
10z"/>
<path d="M2053 2393 c-26 -10 -13 -33 17 -33 32 0 37 9 18 28 -13 13 -16 13
-35 5z"/>
<path d="M2297 2343 c-16 -15 -6 -34 15 -31 29 4 38 38 10 38 -10 0 -22 -3
-25 -7z"/>
<path d="M2662 2388 c-20 -20 -14 -28 19 -28 24 0 30 4 27 17 -4 22 -29 28
-46 11z"/>
<path d="M2977 2393 c-17 -16 -5 -33 23 -33 32 0 37 9 18 28 -13 13 -31 16
-41 5z"/>
<path d="M3111 2386 c-31 -37 13 -97 46 -63 13 13 15 22 7 44 -11 32 -35 41
-53 19z"/>
<path d="M3732 2388 c-26 -26 -10 -78 24 -78 28 0 42 37 24 69 -12 24 -30 27
-48 9z"/>
<path d="M4290 2340 c-12 -7 -12 -12 -2 -22 14 -14 42 -2 50 20 4 14 -27 16
-48 2z"/>
<path d="M645 2388 c-2 -7 -5 -28 -8 -45 -3 -30 -1 -33 25 -33 27 0 28 2 28
45 0 39 -3 45 -20 45 -11 0 -22 -6 -25 -12z"/>
<path d="M1722 2388 c-20 -20 -14 -28 19 -28 24 0 30 4 27 17 -4 22 -29 28
-46 11z"/>
<path d="M1915 2388 c-2 -7 -5 -28 -8 -45 -3 -30 -1 -33 25 -33 27 0 28 2 28
45 0 39 -3 45 -20 45 -11 0 -22 -6 -25 -12z"/>
<path d="M3242 2388 c-20 -20 -14 -28 19 -28 24 0 30 4 27 17 -4 22 -29 28
-46 11z"/>
<path d="M1314 2076 c-12 -32 0 -61 28 -64 22 -3 29 2 34 22 7 31 -10 56 -38
56 -10 0 -21 -6 -24 -14z"/>
<path d="M454 2076 c-12 -32 0 -61 28 -64 29 -4 44 22 33 58 -7 24 -53 28 -61
6z"/>
<path d="M684 2076 c-3 -8 -4 -25 -2 -38 2 -18 9 -23 33 -23 28 0 30 3 30 35
0 31 -3 35 -28 38 -17 2 -29 -2 -33 -12z"/>
<path d="M824 2076 c-11 -29 1 -61 23 -64 29 -4 48 30 33 58 -12 23 -48 27
-56 6z"/>
<path d="M960 2030 c0 -16 5 -21 23 -18 12 2 22 10 22 18 0 8 -10 16 -22 18
-18 3 -23 -2 -23 -18z"/>
<path d="M1445 2071 c-11 -36 3 -63 33 -59 24 3 27 8 27 38 0 30 -3 35 -27 38
-19 2 -28 -2 -33 -17z"/>
<path d="M1744 2076 c-11 -29 1 -61 23 -64 29 -4 48 30 33 58 -12 23 -48 27
-56 6z"/>
<path d="M2114 2076 c-12 -32 0 -61 28 -64 29 -4 44 22 33 58 -7 24 -53 28
-61 6z"/>
<path d="M2240 2025 c0 -9 9 -15 24 -15 13 0 26 7 30 15 4 11 -2 15 -24 15
-20 0 -30 -5 -30 -15z"/>
<path d="M2370 2075 c0 -9 9 -15 25 -15 16 0 25 6 25 15 0 9 -9 15 -25 15 -16
0 -25 -6 -25 -15z"/>
<path d="M2370 2025 c0 -12 7 -15 25 -13 14 2 26 8 26 13 0 6 -12 11 -26 13
-18 2 -25 -1 -25 -13z"/>
<path d="M2620 2070 c0 -13 7 -20 20 -20 13 0 20 7 20 20 0 13 -7 20 -20 20
-13 0 -20 -7 -20 -20z"/>
<path d="M2737 2083 c-15 -15 -5 -23 28 -23 26 0 33 3 29 15 -6 15 -45 21 -57
8z"/>
<path d="M3287 2084 c-15 -15 -6 -24 24 -24 20 0 29 4 27 13 -5 14 -40 21 -51
11z"/>
<path d="M3420 2073 c0 -10 -3 -28 -6 -40 -5 -20 -2 -23 20 -23 24 0 26 4 26
40 0 33 -3 40 -20 40 -12 0 -20 -7 -20 -17z"/>
<path d="M3714 2076 c-3 -8 -4 -25 -2 -38 2 -17 9 -23 28 -23 22 0 25 4 25 35
0 29 -4 36 -23 38 -13 2 -24 -3 -28 -12z"/>
<path d="M743 1783 c-12 -4 -19 -73 -9 -73 2 0 11 -3 19 -6 16 -6 47 20 47 41
0 14 -27 46 -38 44 -4 0 -13 -3 -19 -6z"/>
<path d="M467 1783 c-11 -11 -8 -58 5 -71 31 -31 71 15 49 57 -11 20 -41 28
-54 14z"/>
<path d="M601 1771 c-13 -24 2 -71 23 -71 40 0 49 82 9 88 -14 2 -26 -4 -32
-17z"/>
<path d="M1057 1784 c-15 -15 -6 -24 24 -24 20 0 29 4 27 13 -5 14 -40 21 -51
11z"/>
<path d="M1450 1775 c-11 -13 -7 -15 23 -15 28 0 35 3 31 15 -4 8 -14 15 -24
15 -10 0 -23 -7 -30 -15z"/>
<path d="M744 1243 l30 -16 -30 -13 -29 -14 34 6 c19 4 31 2 28 -3 -3 -5 3 -9
14 -9 18 0 18 2 5 12 -9 6 -13 14 -10 17 3 3 -8 13 -25 21 -39 21 -55 20 -17
-1z"/>
<path d="M530 1241 c0 -5 7 -11 15 -15 8 -3 15 -1 15 3 0 5 -7 11 -15 15 -8 3
-15 1 -15 -3z"/>
<path d="M710 1230 c0 -5 5 -10 11 -10 5 0 7 5 4 10 -3 6 -8 10 -11 10 -2 0
-4 -4 -4 -10z"/>
<path d="M520 1215 c14 -8 30 -14 35 -14 6 0 -1 6 -15 14 -14 8 -29 14 -35 14
-5 0 1 -6 15 -14z"/>
<path d="M463 1203 c-25 -17 -30 -39 -10 -46 9 -3 9 -8 -2 -21 -12 -14 -12
-16 3 -10 13 5 15 14 10 37 -5 23 -3 28 7 22 8 -5 11 -5 7 0 -4 4 -3 14 3 22
15 17 10 16 -18 -4z"/>
<path d="M640 1190 c0 -11 4 -20 9 -20 11 0 22 26 14 34 -12 12 -23 5 -23 -14z"/>
<path d="M504 1191 c4 -5 0 -12 -6 -14 -7 -3 -3 -6 9 -6 16 -1 21 3 17 14 -4
8 -10 15 -16 15 -5 0 -7 -4 -4 -9z"/>
<path d="M885 1100 c0 -57 1 -58 14 -32 l14 27 15 -33 c9 -17 20 -32 25 -32 5
0 2 11 -7 25 -9 13 -16 30 -16 37 -1 7 -11 25 -23 40 l-22 27 0 -59z"/>
<path d="M533 1106 l-33 -33 -2 -119 -2 -119 -6 115 -7 115 0 -127 0 -128 32
-6 c47 -8 225 -10 225 -2 0 4 -51 9 -112 10 l-113 3 0 135 0 135 79 3 c56 2
82 -1 89 -10 6 -10 8 -9 4 4 -8 23 3 30 19 13 8 -8 22 -11 31 -8 11 4 14 3 9
-6 -4 -7 5 -26 22 -45 l30 -34 -3 32 c-2 17 -3 34 -4 39 -1 7 -43 27 -66 31
-5 1 -16 5 -23 10 -8 5 -18 4 -25 -3 -6 -6 -38 -10 -71 -10 -55 2 -57 2 -21 8
38 6 39 7 18 19 -30 17 -34 16 -70 -22z m252 -47 c11 -17 -1 -21 -15 -4 -8 9
-8 15 -2 15 6 0 14 -5 17 -11z"/>
<path d="M382 1117 c-5 -6 -7 -20 -3 -29 5 -15 8 -13 18 7 12 27 2 43 -15 22z"/>
<path d="M486 1104 c-9 -23 -2 -28 13 -10 7 8 8 17 3 20 -6 3 -13 -1 -16 -10z"/>
<path d="M356 1049 c3 -6 10 -23 14 -37 8 -26 9 -26 7 5 -1 18 -7 35 -15 38
-7 3 -10 0 -6 -6z"/>
<path d="M391 1044 c0 -11 3 -14 6 -6 3 7 2 16 -1 19 -3 4 -6 -2 -5 -13z"/>
<path d="M391 1004 c0 -11 3 -14 6 -6 3 7 2 16 -1 19 -3 4 -6 -2 -5 -13z"/>
<path d="M697 988 c2 -5 24 -8 48 -8 l44 0 4 -82 3 -83 2 87 2 86 -54 4 c-30
1 -52 0 -49 -4z"/>
<path d="M360 951 c0 -25 20 -38 21 -14 1 10 5 5 9 -12 l8 -30 1 27 c1 18 -6
31 -19 38 -17 9 -20 8 -20 -9z"/>
<path d="M962 945 c0 -16 2 -22 5 -12 2 9 2 23 0 30 -3 6 -5 -1 -5 -18z"/>
<path d="M887 803 c-2 -21 0 -42 5 -48 6 -6 6 -3 2 9 -5 13 -4 17 4 12 8 -5
10 2 5 26 -8 45 -10 45 -16 1z"/>
<path d="M750 799 c0 -6 4 -8 9 -5 15 10 41 -5 41 -23 0 -14 2 -14 10 -1 17
27 11 37 -25 38 -19 1 -35 -3 -35 -9z"/>
<path d="M386 792 c-2 -4 -1 -14 4 -22 7 -11 9 -9 7 8 -1 24 -3 26 -11 14z"/>
<path d="M450 780 c-23 -7 -23 -8 -3 -9 12 -1 25 4 28 9 3 6 5 10 3 9 -2 -1
-14 -5 -28 -9z"/>
<path d="M525 762 c-9 -6 -11 -15 -6 -38 2 -12 31 18 31 32 0 15 -9 18 -25 6z"/>
<path d="M633 763 c-15 -6 -17 -43 -3 -43 6 0 10 5 10 11 0 7 8 18 18 25 13
11 14 13 2 13 -8 0 -21 -3 -27 -6z"/>
<path d="M716 761 c-3 -4 2 -15 12 -24 15 -14 19 -14 39 3 19 15 20 19 7 24
-23 9 -52 7 -58 -3z"/>
<path d="M460 750 c0 -5 5 -10 11 -10 5 0 7 5 4 10 -3 6 -8 10 -11 10 -2 0 -4
-4 -4 -10z"/>
<path d="M728 703 c7 -3 16 -2 19 1 4 3 -2 6 -13 5 -11 0 -14 -3 -6 -6z"/>
<path d="M740 680 c0 -5 7 -10 16 -10 8 0 12 5 9 10 -3 6 -10 10 -16 10 -5 0
-9 -4 -9 -10z"/>
<path d="M2345 290 c-10 -32 4 -60 30 -60 15 0 26 7 30 20 10 32 -4 60 -30 60
-15 0 -26 -7 -30 -20z"/>
<path d="M774 285 c-6 -25 9 -55 27 -55 5 0 9 18 9 40 0 46 -25 57 -36 15z"/>
<path d="M830 270 c0 -34 3 -41 18 -38 12 2 17 13 17 38 0 25 -5 36 -17 38
-15 3 -18 -4 -18 -38z"/>
<path d="M2696 318 c-10 -38 -7 -48 15 -48 18 0 20 4 14 28 -9 39 -21 47 -29
20z"/>
<path d="M512 298 c-27 -27 -3 -73 35 -66 27 5 25 72 -2 76 -11 1 -26 -3 -33
-10z"/>
<path d="M640 291 c-15 -29 4 -63 33 -59 18 2 22 10 22 38 0 28 -4 36 -22 38
-14 2 -26 -4 -33 -17z"/>
<path d="M1200 255 c0 -18 5 -25 19 -25 26 0 36 17 21 35 -19 23 -40 18 -40
-10z"/>
<path d="M1727 303 c-15 -14 -6 -23 23 -23 20 0 30 5 30 15 0 15 -40 21 -53 8z"/>
<path d="M2140 245 c0 -8 8 -15 19 -15 10 0 24 7 31 15 11 13 8 15 -19 15 -21
0 -31 -5 -31 -15z"/>
<path d="M3147 303 c-15 -14 -6 -23 23 -23 20 0 30 5 30 15 0 15 -40 21 -53 8z"/>
<path d="M3430 244 c0 -11 8 -14 27 -12 39 4 42 28 4 28 -21 0 -31 -5 -31 -16z"/>
<path d="M8 4393 c7 -3 16 -2 19 1 4 3 -2 6 -13 5 -11 0 -14 -3 -6 -6z"/>
<path d="M5502 260 c-12 -5 -27 -21 -32 -35 -5 -14 -16 -25 -25 -25 -29 0 -9
-94 31 -147 28 -37 81 -57 103 -39 20 16 61 112 61 143 0 48 12 16 21 -58 6
-51 6 -76 -2 -86 -9 -11 -2 -13 40 -13 56 0 63 9 28 37 -34 26 -57 66 -55 94
6 88 -90 161 -170 129z"/>
<path d="M600 10 c0 -5 4 -10 9 -10 6 0 13 5 16 10 3 6 -1 10 -9 10 -9 0 -16
-4 -16 -10z"/>
</g>
</svg>
